<svg width="28" height="28" viewBox="0 0 28 28" fill="none" xmlns="http://www.w3.org/2000/svg">
<path d="M14 0.720032C6.66667 0.720032 0.666672 6.7067 0.666672 14.08C0.666672 20.7467 5.54667 26.28 11.92 27.28V17.9467H8.53334V14.08H11.92V11.1334C11.92 7.7867 13.9067 5.9467 16.96 5.9467C18.4133 5.9467 19.9333 6.20003 19.9333 6.20003V9.49336H18.2533C16.6 9.49336 16.08 10.52 16.08 11.5734V14.08H19.7867L19.1867 17.9467H16.08V27.28C19.2219 26.7838 22.0829 25.1807 24.1466 22.7601C26.2102 20.3395 27.3405 17.2609 27.3333 14.08C27.3333 6.7067 21.3333 0.720032 14 0.720032Z" fill="white"/>
</svg>
