<svg width="28" height="28" viewBox="0 0 28 28" fill="none" xmlns="http://www.w3.org/2000/svg">
<path d="M8.4 0.666687H19.6C23.8667 0.666687 27.3333 4.13335 27.3333 8.40002V19.6C27.3333 21.651 26.5186 23.618 25.0683 25.0683C23.618 26.5186 21.651 27.3334 19.6 27.3334H8.4C4.13333 27.3334 0.666664 23.8667 0.666664 19.6V8.40002C0.666664 6.34901 1.48142 4.38201 2.93171 2.93173C4.38199 1.48145 6.34899 0.666687 8.4 0.666687ZM8.13333 3.33335C6.86029 3.33335 5.63939 3.83907 4.73922 4.73924C3.83904 5.63942 3.33333 6.86031 3.33333 8.13335V19.8667C3.33333 22.52 5.48 24.6667 8.13333 24.6667H19.8667C21.1397 24.6667 22.3606 24.161 23.2608 23.2608C24.161 22.3606 24.6667 21.1397 24.6667 19.8667V8.13335C24.6667 5.48002 22.52 3.33335 19.8667 3.33335H8.13333ZM21 5.33335C21.442 5.33335 21.8659 5.50895 22.1785 5.82151C22.4911 6.13407 22.6667 6.55799 22.6667 7.00002C22.6667 7.44205 22.4911 7.86597 22.1785 8.17853C21.8659 8.49109 21.442 8.66669 21 8.66669C20.558 8.66669 20.134 8.49109 19.8215 8.17853C19.5089 7.86597 19.3333 7.44205 19.3333 7.00002C19.3333 6.55799 19.5089 6.13407 19.8215 5.82151C20.134 5.50895 20.558 5.33335 21 5.33335ZM14 7.33335C15.7681 7.33335 17.4638 8.03573 18.714 9.28598C19.9643 10.5362 20.6667 12.2319 20.6667 14C20.6667 15.7681 19.9643 17.4638 18.714 18.7141C17.4638 19.9643 15.7681 20.6667 14 20.6667C12.2319 20.6667 10.5362 19.9643 9.28595 18.7141C8.03571 17.4638 7.33333 15.7681 7.33333 14C7.33333 12.2319 8.03571 10.5362 9.28595 9.28598C10.5362 8.03573 12.2319 7.33335 14 7.33335ZM14 10C12.9391 10 11.9217 10.4214 11.1716 11.1716C10.4214 11.9217 10 12.9392 10 14C10 15.0609 10.4214 16.0783 11.1716 16.8284C11.9217 17.5786 12.9391 18 14 18C15.0609 18 16.0783 17.5786 16.8284 16.8284C17.5786 16.0783 18 15.0609 18 14C18 12.9392 17.5786 11.9217 16.8284 11.1716C16.0783 10.4214 15.0609 10 14 10Z" fill="white"/>
</svg>
