<?xml version="1.0" standalone="no"?>
<!DOCTYPE svg PUBLIC "-//W3C//DTD SVG 1.1//EN" "http://www.w3.org/Graphics/SVG/1.1/DTD/svg11.dtd">
<svg xmlns="http://www.w3.org/2000/svg"><metadata>This SVG WebFont was generated by YouWorkForThem.
Copyright Â© 2020 by MARSNEV. All rights reserved.</metadata><defs><font horiz-adv-x="628" id="ywftsvg"><font-face ascent="800" bbox="-823 -264 1215 935" cap-height="640" descent="-200" font-family="" font-stretch="normal" font-weight="700" panose-1="0 0 8 0 0 0 0 0 0 0" underline-position="0" underline-thickness="0" unicode-range="U+0020-3000" units-per-em="1000" x-height="440"/><missing-glyph d="M434 -149q-176 0 -290.5 114.5t-114.5 290.5t114.5 290.5t290.5 114.5t290.5 -114.5t114.5 -290.5t-114.5 -290.5t-290.5 -114.5zM325 189h173v11q0 18 12.5 32t31 24.5t36.5 24t30.5 37t12.5 56.5q0 71 -54.5 111.5t-140.5 40.5q-115 0 -178 -72l37 -128q47 58 114 58 q34 0 34 -19q0 -14 -17 -29t-37 -28.5t-37 -42t-17 -65.5v-11zM411 -14q43 0 70 23.5t27 60.5t-27 61t-70 24t-70 -24t-27 -61t27 -60.5t70 -23.5z" horiz-adv-x="868"/><glyph d="M434 -149q-176 0 -290.5 114.5t-114.5 290.5t114.5 290.5t290.5 114.5t290.5 -114.5t114.5 -290.5t-114.5 -290.5t-290.5 -114.5zM325 189h173v11q0 18 12.5 32t31 24.5t36.5 24t30.5 37t12.5 56.5q0 71 -54.5 111.5t-140.5 40.5q-115 0 -178 -72l37 -128q47 58 114 58 q34 0 34 -19q0 -14 -17 -29t-37 -28.5t-37 -42t-17 -65.5v-11zM411 -14q43 0 70 23.5t27 60.5t-27 61t-70 24t-70 -24t-27 -61t27 -60.5t70 -23.5z" glyph-name=".notdef" horiz-adv-x="868"/><glyph glyph-name="glyph1" horiz-adv-x="0"/><glyph glyph-name="glyph2" horiz-adv-x="333"/><glyph glyph-name="space" horiz-adv-x="240" unicode=" "/><glyph d="M81 220v420h163v-420h-163zM152 -14q-41 0 -67.5 24t-26.5 62q0 37 26.5 61t67.5 24t67 -23.5t26 -61.5t-26 -62t-67 -24z" glyph-name="exclam" horiz-adv-x="307" unicode="!"/><glyph d="M35 450l-10 270h144l-10 -270h-124zM230 450l-10 270h144l-10 -270h-124z" glyph-name="quotedbl" horiz-adv-x="389" unicode="&quot;"/><glyph d="M591 366h-68l-14 -101h68l-18 -129h-68l-19 -136h-154l19 136h-96l-19 -136h-154l19 136h-68l18 129h68l14 101h-68l18 129h69l20 145h154l-20 -145h96l20 145h154l-20 -145h67zM355 265l14 101h-96l-14 -101h96z" glyph-name="numbersign" unicode="#"/><glyph d="M559 204q0 -85 -55.5 -140.5t-149.5 -71.5v-92h-130v90q-115 16 -201 77l38 135q112 -61 218 -61q49 0 85.5 14.5t36.5 40.5q0 23 -25.5 38t-64.5 21.5t-83.5 20t-83.5 31.5t-64.5 57.5t-25.5 96.5q0 73 46 122t124 64v93h130v-91q89 -14 173 -65l-37 -130 q-105 51 -186 51q-38 0 -64.5 -12.5t-26.5 -32.5q0 -16 19 -26t49.5 -17t67.5 -14t74 -21t67.5 -34t49.5 -57t19 -87z" glyph-name="dollar" horiz-adv-x="582" unicode="$"/><glyph d="M198 323q-76 0 -124.5 46t-48.5 119q0 72 48.5 118.5t124.5 46.5q74 0 122.5 -46.5t48.5 -118.5t-48 -118.5t-123 -46.5zM130 0l450 640h153l-449 -640h-154zM198 432q24 0 39.5 15.5t15.5 40.5t-15.5 40.5t-39.5 15.5q-25 0 -41 -15.5t-16 -40.5t16 -40.5t41 -15.5z M664 -13q-76 0 -124.5 46.5t-48.5 119.5q0 72 48.5 118.5t124.5 46.5q74 0 122.5 -46.5t48.5 -118.5q0 -73 -48.5 -119.5t-122.5 -46.5zM664 97q24 0 39.5 15.5t15.5 40.5t-15.5 40.5t-39.5 15.5q-25 0 -41 -15.5t-16 -40.5t16 -40.5t41 -15.5z" glyph-name="percent" horiz-adv-x="860" unicode="%"/><glyph d="M745 0h-217q-14 12 -40 36q-80 -50 -186 -50q-124 0 -198.5 60.5t-74.5 155.5q0 76 44.5 124.5t109.5 64.5q-24 54 -24 98q0 74 51.5 119.5t139.5 45.5q123 0 175 -100l-70 -105q-40 68 -89 68q-48 0 -48 -46q0 -62 151 -219q17 48 17 108h165q0 -131 -61 -225 q63 -58 155 -135zM204 212q0 -36 27 -57t74 -21q37 0 67 12q-73 73 -121 136q-21 -8 -34 -26.5t-13 -43.5z" glyph-name="ampersand" horiz-adv-x="750" unicode="&amp;"/><glyph d="M35 450l-10 270h144l-10 -270h-124z" glyph-name="quotesingle" horiz-adv-x="194" unicode="'"/><glyph d="M169 -120q-67 73 -105.5 188.5t-38.5 241.5q0 127 38.5 242t105.5 188h149q-64 -71 -99.5 -185.5t-35.5 -244.5t36 -244.5t99 -185.5h-149z" glyph-name="parenleft" horiz-adv-x="343" unicode="("/><glyph d="M174 740q67 -73 105.5 -188t38.5 -242q0 -126 -38.5 -241.5t-105.5 -188.5h-149q63 71 99 185.5t36 244.5t-35.5 244.5t-99.5 185.5h149z" glyph-name="parenright" horiz-adv-x="343" unicode=")"/><glyph d="M111 473l-58 43l61 65l-89 20l22 65l84 -34l-8 88h73l-8 -88l84 35l23 -65l-92 -21l63 -65l-60 -43l-47 77z" glyph-name="asterisk" horiz-adv-x="320" unicode="*"/><glyph d="M538 375v-142h-141v-139h-155v139h-142v142h142v139h155v-139h141z" glyph-name="plus" unicode="+"/><glyph d="M131 -147l-24 62q41 15 61.5 38t18.5 41q-16 -8 -35 -8q-44 0 -69 22t-25 59q0 40 29.5 65t74.5 25t75 -27.5t30 -83.5q0 -68 -39 -124t-97 -69z" glyph-name="comma" horiz-adv-x="325" unicode=","/><glyph d="M25 164v144h306v-144h-306z" glyph-name="hyphen" horiz-adv-x="356" unicode="-"/><glyph d="M152 -14q-41 0 -67.5 24t-26.5 62q0 37 26.5 61t67.5 24t67 -23.5t26 -61.5t-26 -62t-67 -24z" glyph-name="period" horiz-adv-x="303" unicode="."/><glyph d="M5 -120l240 860h157l-240 -860h-157z" glyph-name="slash" horiz-adv-x="407" unicode="/"/><glyph d="M314 -14q-129 0 -207 93t-78 241t78 241t207 93t207 -93t78 -241t-78 -241t-207 -93zM314 142q52 0 81.5 49.5t29.5 129.5t-29.5 129t-81.5 49q-51 0 -80.5 -49t-29.5 -129t29 -129.5t81 -49.5z" glyph-name="zero" unicode="0"/><glyph d="M160 0v449l-131 -52v150l220 93h86v-640h-175z" glyph-name="one" horiz-adv-x="405" unicode="1"/><glyph d="M29 0v68q177 145 246 226.5t69 132.5q0 31 -20.5 51t-61.5 20q-93 0 -171 -83l-37 129q101 110 235 110q106 0 167.5 -58.5t61.5 -160.5q0 -161 -193 -291h203v-144h-499z" glyph-name="two" horiz-adv-x="557" unicode="2"/><glyph d="M271 -10q-132 0 -242 63l38 130q84 -45 181 -45q59 0 95 22.5t36 55.5q0 37 -37.5 58.5t-101.5 21.5q-72 0 -133 -21l-13 51l183 175h-196v139h429v-68l-157 -154q93 -7 146.5 -60.5t53.5 -135.5q0 -108 -76 -170t-206 -62z" glyph-name="three" horiz-adv-x="582" unicode="3"/><glyph d="M375 0v111h-346v79l331 450h174v-390h65v-139h-65v-111h-159zM247 250h128v191z" glyph-name="four" unicode="4"/><glyph d="M305 423q116 0 184.5 -59t68.5 -153q0 -104 -77.5 -164.5t-206.5 -60.5q-139 0 -245 61l38 130q93 -43 190 -43q60 0 93 20t33 54q0 39 -37.5 61t-107.5 22q-80 0 -147 -18l-18 31l32 336h388l-13 -144h-242l-7 -80q32 7 74 7z" glyph-name="five" horiz-adv-x="587" unicode="5"/><glyph d="M314 437q94 0 154.5 -59.5t60.5 -158.5q0 -105 -67 -169t-174 -64q-123 0 -191 86t-68 235q0 160 76.5 253.5t202.5 93.5q110 0 189 -57l-35 -125q-65 38 -141 38q-110 0 -135 -122q52 49 128 49zM280 133q38 0 59.5 26t21.5 67t-22 65.5t-59 24.5q-38 0 -60 -24.5 t-22 -66.5t23 -67t59 -25z" glyph-name="six" horiz-adv-x="558" unicode="6"/><glyph d="M505 640v-63l-218 -577h-179l179 493h-258v147h476z" glyph-name="seven" horiz-adv-x="534" unicode="7"/><glyph d="M464 350q56 -24 88.5 -68.5t32.5 -94.5q0 -89 -75.5 -143t-202.5 -54q-126 0 -202 54t-76 143q0 50 32.5 94.5t89.5 68.5q-38 21 -59 54t-21 69q0 80 64.5 128.5t171.5 48.5t171.5 -48.5t64.5 -128.5q0 -36 -21 -68.5t-58 -54.5zM307 508q-32 0 -52 -15t-20 -39 q0 -28 20 -45t52 -17t52 17t20 45q0 24 -20 39t-52 15zM307 137q47 0 75.5 20t28.5 54q0 32 -29 54t-75 22t-74.5 -22t-28.5 -54q0 -34 28 -54t75 -20z" glyph-name="eight" horiz-adv-x="614" unicode="8"/><glyph d="M271 654q123 0 190.5 -85.5t67.5 -235.5q0 -160 -76 -253.5t-202 -93.5q-112 0 -190 58l35 125q64 -39 141 -39q111 0 136 124q-50 -50 -128 -50q-94 0 -155 59t-61 159q0 105 67.5 168.5t174.5 63.5zM279 324q38 0 60 24.5t22 66.5t-23 67t-60 25q-38 0 -59 -26t-21 -67 q0 -42 21.5 -66t59.5 -24z" glyph-name="nine" horiz-adv-x="558" unicode="9"/><glyph d="M152 232q-41 0 -67.5 24t-26.5 62q0 37 26.5 61t67.5 24t67 -23.5t26 -61.5t-26 -62t-67 -24zM152 -14q-41 0 -67.5 24t-26.5 62q0 37 26.5 61t67.5 24t67 -23.5t26 -61.5t-26 -62t-67 -24z" glyph-name="colon" horiz-adv-x="303" unicode=":"/><glyph d="M152 232q-41 0 -67.5 24t-26.5 62q0 37 26.5 61t67.5 24t67 -23.5t26 -61.5t-26 -62t-67 -24zM131 -147l-24 62q41 15 61.5 38t18.5 41q-16 -8 -35 -8q-44 0 -69 22t-25 59q0 40 29.5 65t74.5 25t75 -27.5t30 -83.5q0 -68 -39 -124t-97 -69z" glyph-name="semicolon" horiz-adv-x="325" unicode=";"/><glyph d="M546 366l-296 -59l296 -58v-144l-453 134v136l453 135v-144z" glyph-name="less" unicode="&lt;"/><glyph d="M70 359v130h498v-130h-498zM70 119v130h498v-130h-498z" glyph-name="equal" unicode="="/><glyph d="M93 249l295 58l-295 59v144l453 -135v-135l-453 -135v144z" glyph-name="greater" unicode=">"/><glyph d="M130 218v19q0 39 14.5 69.5t36 49t42.5 34.5t35.5 33.5t14.5 38.5q0 48 -64 48q-88 0 -143 -86l-37 128q72 102 203 102q96 0 156 -49.5t60 -134.5q0 -42 -16 -72.5t-39 -48t-45.5 -32t-38.5 -34.5t-16 -46v-19h-163zM201 -14q-41 0 -67 24t-26 62t26 61.5t67 23.5 t67.5 -24t26.5 -61q0 -38 -26.5 -62t-67.5 -24z" glyph-name="question" horiz-adv-x="477" unicode="?"/><glyph d="M490 688q202 0 332 -111t130 -290q0 -111 -67 -179t-160 -68q-65 0 -107 28t-51 77q-39 -58 -118 -58q-83 0 -139.5 54t-56.5 141t56.5 141t139.5 54q78 0 116 -55v43l123 -5v-279q0 -40 37 -40q26 0 47 40t21 106q0 121 -85.5 198.5t-217.5 77.5t-217 -77.5t-85 -198.5 q0 -117 79 -190.5t200 -73.5q48 0 126 7l30 -111q-65 -29 -155 -29q-191 0 -315 109.5t-124 287.5q0 179 130 290t331 111zM473 212q36 0 56.5 18.5t20.5 51.5t-20.5 52t-56.5 19q-30 0 -48 -19t-18 -52t18 -51.5t48 -18.5z" glyph-name="at" horiz-adv-x="981" unicode="@"/><glyph d="M488 0l-35 94h-224l-35 -94h-188l277 640h116l277 -640h-188zM282 233h118l-59 157z" glyph-name="A" horiz-adv-x="682" unicode="A"/><glyph d="M484 350q120 -38 120 -154q0 -94 -79.5 -145t-230.5 -51h-236v640h236q128 0 198 -44.5t70 -124.5q0 -83 -78 -121zM299 496h-71v-100h71q41 0 65.5 13.5t24.5 38.5q0 24 -25.5 36t-64.5 12zM299 144q61 0 96.5 16.5t35.5 49.5q0 64 -132 64h-71v-130h71z" glyph-name="B" horiz-adv-x="627" unicode="B"/><glyph d="M391 -14q-162 0 -262 92t-100 242t100 242t262 92q128 0 222 -64l-39 -140q-90 48 -180 48q-85 0 -137.5 -48.5t-52.5 -129.5q0 -80 52 -129t137 -49q87 0 181 49l39 -140q-94 -65 -222 -65z" glyph-name="C" horiz-adv-x="636" unicode="C"/><glyph d="M274 640q172 0 270.5 -85.5t98.5 -234.5t-98.5 -234.5t-270.5 -85.5h-216v640h216zM274 155q91 0 142.5 44t51.5 121t-51.5 121t-142.5 44h-41v-330h41z" glyph-name="D" horiz-adv-x="672" unicode="D"/><glyph d="M502 496h-269v-103h258v-134h-258v-115h269v-144h-444v640h444v-144z" glyph-name="E" horiz-adv-x="525" unicode="E"/><glyph d="M502 496h-269v-109h258v-144h-258v-243h-175v640h444v-144z" glyph-name="F" horiz-adv-x="525" unicode="F"/><glyph d="M378 361h282v-288q-112 -87 -270 -87q-161 0 -261 92t-100 243q0 149 100 241t262 92q128 0 222 -64l-39 -140q-90 48 -180 48q-85 0 -137.5 -48.5t-52.5 -127.5q0 -80 54 -133t139 -53q57 0 98 22v74h-117v129z" glyph-name="G" horiz-adv-x="695" unicode="G"/><glyph d="M434 640h174v-640h-174v259h-201v-259h-175v640h175v-237h201v237z" glyph-name="H" horiz-adv-x="666" unicode="H"/><glyph d="M295 135h93v-135h-359v135h92v370h-82v135h339v-135h-83v-370z" glyph-name="I" horiz-adv-x="417" unicode="I"/><glyph d="M166 -14q-107 0 -160 53l40 136q57 -34 120 -34q52 0 81.5 36t29.5 98v365h174v-365q0 -139 -74 -214t-211 -75z" glyph-name="J" horiz-adv-x="497" unicode="J"/><glyph d="M441 0l-156 220l-52 -63v-157h-175v640h175v-230l177 230h223l-238 -288l256 -352h-210z" glyph-name="K" horiz-adv-x="657" unicode="K"/><glyph d="M233 144h244v-144h-419v640h175v-496z" glyph-name="L" horiz-adv-x="500" unicode="L"/><glyph d="M46 0l78 640h110l190 -396l188 396h109l78 -640h-175l-26 286l-137 -286h-76l-137 286l-26 -286h-176z" glyph-name="M" horiz-adv-x="845" unicode="M"/><glyph d="M58 0v640h95l309 -330v330h175v-640h-95l-309 331v-331h-175z" glyph-name="N" horiz-adv-x="695" unicode="N"/><glyph d="M384 -14q-156 0 -255.5 94t-99.5 240t99.5 240t255.5 94q155 0 254.5 -94t99.5 -240t-99.5 -240t-254.5 -94zM384 141q79 0 129.5 50.5t50.5 128.5t-50.5 128t-129.5 50t-130 -50t-51 -128t51 -128.5t130 -50.5z" glyph-name="O" horiz-adv-x="767" unicode="O"/><glyph d="M289 640q139 0 218.5 -60.5t79.5 -166.5t-79.5 -167t-218.5 -61h-56v-185h-175v640h231zM289 333q58 0 91 21.5t33 58.5t-33 58.5t-91 21.5h-56v-160h56z" glyph-name="P" horiz-adv-x="610" unicode="P"/><glyph d="M562 -2q69 0 135 36l37 -131q-84 -30 -172 -30q-91 0 -160 34t-98 86q-124 23 -199.5 112t-75.5 215q0 146 99.5 240t255.5 94q155 0 254.5 -94t99.5 -240q0 -114 -62.5 -198.5t-168.5 -117.5q24 -6 55 -6zM203 320q0 -78 51 -128.5t130 -50.5t129.5 50.5t50.5 128.5 t-50.5 128t-129.5 50t-130 -50t-51 -128z" glyph-name="Q" horiz-adv-x="770" unicode="Q"/><glyph d="M621 0h-195l-123 185h-14h-56v-185h-175v640h231q139 0 218.5 -60.5t79.5 -166.5q0 -132 -118 -191zM233 493v-160h56q58 0 91 21.5t33 58.5t-33 58.5t-91 21.5h-56z" glyph-name="R" horiz-adv-x="627" unicode="R"/><glyph d="M283 -14q-145 0 -260 81l38 135q112 -61 218 -61q49 0 85.5 14.5t36.5 40.5q0 23 -25.5 38t-64.5 21.5t-83.5 20t-83.5 31.5t-64.5 57.5t-25.5 96.5q0 90 66.5 141.5t173.5 51.5q117 0 233 -70l-37 -130q-105 51 -186 51q-38 0 -64.5 -12.5t-26.5 -32.5q0 -16 19 -26 t49.5 -17t67.5 -14t74 -21t67.5 -34t49.5 -57t19 -87q0 -100 -76.5 -159t-199.5 -59z" glyph-name="S" horiz-adv-x="582" unicode="S"/><glyph d="M516 640v-144h-158v-496h-174v496h-161v144h493z" glyph-name="T" horiz-adv-x="539" unicode="T"/><glyph d="M328 -14q-131 0 -206.5 82t-75.5 220v352h175v-352q0 -147 107 -147q109 0 109 147v352h174v-352q0 -138 -76 -220t-207 -82z" glyph-name="U" horiz-adv-x="657" unicode="U"/><glyph d="M283 0l-277 640h188l147 -374l147 374h188l-277 -640h-116z" glyph-name="V" horiz-adv-x="682" unicode="V"/><glyph d="M223 0l-217 640h187l110 -344l135 344h89l134 -344l110 344h187l-216 -640h-127l-133 339l-132 -339h-127z" glyph-name="W" horiz-adv-x="964" unicode="W"/><glyph d="M634 0h-202l-111 214l-112 -214h-203l204 332l-182 308h194l98 -189l98 189h194l-181 -308z" glyph-name="X" horiz-adv-x="640" unicode="X"/><glyph d="M637 640l-228 -416v-224h-174v222l-229 418h192l124 -270l123 270h192z" glyph-name="Y" horiz-adv-x="643" unicode="Y"/><glyph d="M23 0v83l269 413h-258v144h496v-82l-269 -414h279v-144h-517z" glyph-name="Z" horiz-adv-x="563" unicode="Z"/><glyph d="M310 615h-103v-609h103v-126h-252v860h252v-125z" glyph-name="bracketleft" horiz-adv-x="335" unicode="["/><glyph d="M245 -120l-240 860h157l240 -860h-157z" glyph-name="backslash" horiz-adv-x="407" unicode="\"/><glyph d="M277 740v-860h-252v126h104v609h-104v125h252z" glyph-name="bracketright" horiz-adv-x="335" unicode="]"/><glyph d="M464 420h-159l-70 171l-70 -171h-160l143 300h178z" glyph-name="asciicircum" horiz-adv-x="469" unicode="^"/><glyph d="M5 -80v144h558v-144h-558z" glyph-name="underscore" horiz-adv-x="568" unicode="_"/><glyph d="M158 515l-100 120h128l67 -120h-95z" glyph-name="grave" horiz-adv-x="331" unicode="`"/><glyph d="M506 126h12l-11 -126h-36q-69 0 -105 26q-62 -40 -139 -40q-202 0 -202 143q0 82 72.5 117.5t221.5 42.5v1q0 22 -21 34.5t-55 11.5q-68 0 -142 -30l-30 108q86 40 192 40q95 0 150.5 -46.5t55.5 -126.5v-106q0 -26 8.5 -37.5t28.5 -11.5zM179 135q0 -35 67 -35 q36 2 75 20q-2 20 -2 32v32q-74 -4 -107 -15t-33 -34z" glyph-name="a" horiz-adv-x="528" unicode="a"/><glyph d="M340 454q97 0 158.5 -64.5t61.5 -169.5t-61.5 -169.5t-158.5 -64.5q-100 0 -153 65l-7 -51h-130v740h165v-324q49 38 125 38zM311 121q38 0 61.5 27.5t23.5 71.5q0 45 -23.5 72.5t-61.5 27.5q-44 0 -70 -27.5t-26 -72.5t26 -72t70 -27z" glyph-name="b" horiz-adv-x="585" unicode="b"/><glyph d="M301 -14q-125 0 -200.5 64t-75.5 170t75.5 170t200.5 64q109 0 182 -50l-34 -116q-80 30 -138 32q-55 1 -88 -27t-33 -74q0 -45 32.5 -71.5t88.5 -26.5q63 0 138 32l34 -116q-75 -51 -182 -51z" glyph-name="c" horiz-adv-x="503" unicode="c"/><glyph d="M371 740h164v-740h-129l-7 52q-52 -66 -154 -66q-97 0 -158.5 64.5t-61.5 169.5t61.5 169.5t158.5 64.5q77 0 126 -38v324zM275 121q44 0 70 27t26 72t-26 72.5t-70 27.5q-38 0 -61.5 -27.5t-23.5 -72.5q0 -44 23.5 -71.5t61.5 -27.5z" glyph-name="d" horiz-adv-x="585" unicode="d"/><glyph d="M517 244q0 -30 -13 -72h-317q29 -58 106 -58q84 0 151 27l30 -106q-81 -45 -178 -45q-122 0 -196.5 64t-74.5 171q0 104 72.5 166.5t192.5 62.5q105 0 166 -57.5t61 -152.5zM287 330q-79 0 -104 -64h189q-5 31 -28 47.5t-57 16.5z" glyph-name="e" horiz-adv-x="542" unicode="e"/><glyph d="M232 561v-121h121v-127h-121v-313h-164v313h-58v127h58v121q0 88 52 140.5t139 52.5q65 0 122 -45l-32 -102q-35 20 -64 20q-23 0 -38 -18t-15 -48z" glyph-name="f" horiz-adv-x="386" unicode="f"/><glyph d="M408 440h130v-410q0 -121 -70 -192.5t-189 -71.5q-135 0 -221 67l36 124q71 -57 161 -57q54 0 85 34t33 90q-49 -38 -127 -38q-97 0 -159 64.5t-62 169.5t62 169.5t159 64.5q105 0 158 -69zM281 121q42 0 67 27.5t25 71.5q0 45 -25 72.5t-67 27.5q-41 0 -66 -27.5 t-25 -72.5q0 -44 25 -71.5t66 -27.5z" glyph-name="g" horiz-adv-x="588" unicode="g"/><glyph d="M314 454q98 0 153 -58t55 -160v-236h-164v236q0 39 -17.5 61.5t-47.5 22.5q-36 0 -57 -22.5t-21 -61.5v-236h-165v740h165v-318q41 32 99 32z" glyph-name="h" horiz-adv-x="572" unicode="h"/><glyph d="M134 541q-41 0 -67.5 24t-26.5 62q0 37 26.5 61t67.5 24t67 -23.5t26 -61.5t-26 -62t-67 -24zM52 0v440h164v-440h-164z" glyph-name="i" horiz-adv-x="267" unicode="i"/><glyph d="M123 541q-41 0 -67.5 24t-26.5 62q0 37 26.5 61t67.5 24t67 -24t26 -61q0 -38 -26 -62t-67 -24zM-7 -234l-12 126h21q39 0 39 69v479h164v-482q0 -101 -41 -146.5t-131 -45.5h-40z" glyph-name="j" horiz-adv-x="256" unicode="j"/><glyph d="M374 0l-108 149l-51 -53v-96h-165v740h165v-445l130 145h202l-177 -183l197 -257h-193z" glyph-name="k" horiz-adv-x="572" unicode="k"/><glyph d="M222 0q-90 0 -131 45.5t-41 146.5v548h165v-545q0 -37 9 -53t30 -16h21l-11 -126h-42z" glyph-name="l" horiz-adv-x="285" unicode="l"/><glyph d="M581 454q83 0 131 -55.5t48 -152.5v-246h-164v246q0 74 -51 74q-26 0 -41.5 -19.5t-15.5 -54.5v-246h-165v246q0 74 -51 74q-27 0 -42 -19.5t-15 -54.5v-246h-165v440h130l3 -44q41 58 118 58q92 0 143 -63q49 63 137 63z" glyph-name="m" horiz-adv-x="810" unicode="m"/><glyph d="M314 454q98 0 153 -58t55 -160v-236h-164v236q0 39 -17.5 61.5t-47.5 22.5q-36 0 -57 -22.5t-21 -61.5v-236h-165v440h130l3 -52q46 66 131 66z" glyph-name="n" horiz-adv-x="572" unicode="n"/><glyph d="M282 -14q-116 0 -186.5 64t-70.5 170t70.5 170t186.5 64t186.5 -64t70.5 -170t-70.5 -170t-186.5 -64zM282 121q41 0 67 27.5t26 71.5q0 45 -26 72.5t-67 27.5t-66.5 -27.5t-25.5 -72.5q0 -44 25.5 -71.5t66.5 -27.5z" glyph-name="o" horiz-adv-x="564" unicode="o"/><glyph d="M340 454q97 0 158.5 -64.5t61.5 -169.5t-61.5 -169.5t-158.5 -64.5q-76 0 -125 38v-244h-165v660h130l7 -51q53 65 153 65zM311 121q38 0 61.5 27.5t23.5 71.5q0 45 -23.5 72.5t-61.5 27.5q-44 0 -70 -27.5t-26 -72.5t26 -72t70 -27z" glyph-name="p" horiz-adv-x="585" unicode="p"/><glyph d="M406 440h129v-660h-164v244q-49 -38 -126 -38q-97 0 -158.5 64.5t-61.5 169.5t61.5 169.5t158.5 64.5q102 0 154 -66zM275 121q44 0 70 27t26 72t-26 72.5t-70 27.5q-38 0 -61.5 -27.5t-23.5 -72.5q0 -44 23.5 -71.5t61.5 -27.5z" glyph-name="q" horiz-adv-x="585" unicode="q"/><glyph d="M318 454q26 0 56 -9l-42 -132q-18 7 -35 7q-38 0 -60 -31t-22 -83v-206h-165v440h140l4 -60q44 74 124 74z" glyph-name="r" horiz-adv-x="384" unicode="r"/><glyph d="M231 -14q-131 0 -211 61l35 115q77 -51 155 -55q33 -2 58.5 5t25.5 20q0 12 -26 20.5t-63 18t-74.5 24.5t-63.5 45.5t-26 74.5q0 63 53.5 101t140.5 38q103 0 185 -44l-31 -107q-73 35 -130 35q-29 1 -49 -4.5t-20 -15.5q0 -11 26 -18t63.5 -15.5t75 -23t63.5 -46.5 t26 -79q0 -77 -60 -113.5t-153 -36.5z" glyph-name="s" horiz-adv-x="464" unicode="s"/><glyph d="M349 133l32 -102q-63 -45 -127 -45q-85 0 -135.5 53t-50.5 141v133h-58v127h72l6 154h144v-154h121v-127h-121v-133q0 -30 14 -48t36 -18q26 0 67 19z" glyph-name="t" horiz-adv-x="391" unicode="t"/><glyph d="M280 -14q-105 0 -167.5 58t-62.5 155v241h165v-241q0 -36 17.5 -57t47.5 -21t47.5 21.5t17.5 56.5v241h164v-241q0 -97 -62 -155t-167 -58z" glyph-name="u" horiz-adv-x="559" unicode="u"/><glyph d="M214 0l-209 440h179l86 -232l86 232h179l-209 -440h-112z" glyph-name="v" horiz-adv-x="540" unicode="v"/><glyph d="M167 0l-162 440h179l63 -225l88 225h65l88 -225l63 225h179l-162 -440h-125l-75 188l-76 -188h-125z" glyph-name="w" horiz-adv-x="735" unicode="w"/><glyph d="M515 0h-180l-75 131l-75 -131h-180l161 228l-140 212h174l60 -110l60 110h175l-140 -212z" glyph-name="x" horiz-adv-x="520" unicode="x"/><glyph d="M365 440h165v-410q0 -121 -69 -192.5t-185 -71.5q-132 0 -216 67l36 124q68 -57 156 -57q54 0 83.5 36t29.5 94v3q-45 -47 -112 -47q-92 0 -147.5 58t-55.5 155v241h165v-241q0 -35 18.5 -56.5t48.5 -21.5q38 0 60.5 21.5t22.5 56.5v241z" glyph-name="y" horiz-adv-x="580" unicode="y"/><glyph d="M10 0v77l167 236h-156v127h357v-77l-167 -236h178v-127h-379z" glyph-name="z" horiz-adv-x="399" unicode="z"/><glyph d="M292 -120q-78 0 -122.5 46.5t-44.5 128.5v139q0 30 -26.5 47t-73.5 17v104q46 0 73 17.5t27 47.5v138q0 82 44.5 128.5t122.5 46.5h76v-125h-41q-54 0 -54 -69v-140q0 -45 -21.5 -70.5t-58.5 -25.5q37 0 58.5 -25.5t21.5 -69.5v-140q0 -69 54 -69h41v-126h-76z" glyph-name="braceleft" horiz-adv-x="393" unicode="{"/><glyph d="M174 888h140v-1152h-140v1152z" glyph-name="bar" horiz-adv-x="488" unicode="|"/><glyph d="M101 740q78 0 122.5 -46.5t44.5 -128.5v-138q0 -30 27 -47.5t73 -17.5v-104q-46 0 -73 -17.5t-27 -47.5v-138q0 -82 -44.5 -128.5t-122.5 -46.5h-76v126h41q26 0 40 18t14 50v141q0 44 21.5 69.5t58.5 25.5q-38 0 -59 25.5t-21 70.5v139q0 70 -54 70h-41v125h76z" glyph-name="braceright" horiz-adv-x="393" unicode="}"/><glyph d="M407 209q-39 0 -67.5 15t-41.5 32.5t-30 32.5t-34 15q-23 0 -36 -21.5t-13 -61.5h-115q0 99 42 153t117 54q38 0 67 -15t42 -32.5t30 -32.5t34 -15q24 0 37.5 21.5t13.5 61.5h115q0 -98 -43 -152.5t-118 -54.5z" glyph-name="asciitilde" unicode="~"/><glyph d="M155 434q41 0 67.5 -24t26.5 -61q0 -38 -26.5 -62t-67.5 -24t-67 24t-26 62t26 61.5t67 23.5zM226 200v-420h-163v420h163z" glyph-name="exclamdown" horiz-adv-x="307" unicode="¡"/><glyph d="M449 250l34 -116q-53 -36 -131 -47v-87h-130v92q-92 18 -144.5 78t-52.5 147t52.5 147t144.5 79v97h130v-92q78 -11 131 -47l-34 -116q-80 30 -138 32q-55 1 -88 -27t-33 -74q0 -45 32.5 -71.5t88.5 -26.5q63 0 138 32z" glyph-name="cent" horiz-adv-x="508" unicode="¢"/><glyph d="M231 140h245v-140h-447v140h21q21 0 37 28t18 71h-76v115h52q-23 54 -23 103q0 89 59.5 143t162.5 54q77 0 158 -53l-33 -117q-50 36 -99 36q-39 0 -61 -22.5t-22 -61.5q0 -33 17 -82h131v-115h-113q-3 -59 -27 -99z" glyph-name="sterling" horiz-adv-x="505" unicode="£"/><glyph d="M555 180l-93 -90l-84 80q-40 -17 -86 -17t-86 17l-84 -80l-93 90l81 76q-20 38 -20 84q0 47 20 85l-79 76l93 90l82 -80q40 17 86 17q47 0 87 -17l82 80l93 -90l-81 -77q20 -38 20 -84q0 -45 -20 -83zM292 273q29 0 49 19.5t20 47.5q0 27 -20 46t-49 19t-49 -19t-20 -46 q0 -28 20 -47.5t49 -19.5z" glyph-name="currency" horiz-adv-x="584" unicode="¤"/><glyph d="M637 640l-183 -334h126v-90h-171v-35h171v-90h-171v-91h-174v91h-168v90h168v35h-168v90h122l-183 334h192l124 -270l123 270h192z" glyph-name="yen" horiz-adv-x="643" unicode="¥"/><glyph d="M174 888h140v-486h-140v486zM174 223h140v-487h-140v487z" glyph-name="brokenbar" horiz-adv-x="488" unicode="¦"/><glyph d="M430 238q52 -39 52 -105q0 -72 -59 -109.5t-158 -37.5q-127 0 -207 61l35 110q78 -51 155 -55q34 -1 59 8t25 22q0 12 -26 21t-63 19.5t-74.5 25t-63.5 45t-26 72.5q0 66 66 94q-66 40 -66 106q0 63 53.5 101t143.5 38q100 0 182 -44l-31 -102q-69 33 -130 35 q-29 2 -49 -4.5t-20 -18.5q0 -10 19 -17.5t47 -13t61 -16.5t61 -26.5t47 -44.5t19 -69q0 -66 -52 -95zM213 325q0 -3 1.5 -6t4.5 -5.5t6.5 -4.5t10 -4t11.5 -3.5t13.5 -3.5t14 -3.5t16 -4t16.5 -3.5q40 13 40 34q0 22 -71 41q-27 -5 -45 -15t-18 -22z" glyph-name="section" horiz-adv-x="540" unicode="§"/><glyph d="M115 513q-25 0 -41 15t-16 37q0 23 16 38t41 15t40.5 -15t15.5 -38q0 -22 -16 -37t-40 -15zM277 513q-24 0 -40 15t-16 37q0 23 15.5 38t40.5 15t40.5 -15t15.5 -38q0 -22 -16 -37t-40 -15z" glyph-name="dieresis" horiz-adv-x="411" unicode="¨"/><glyph d="M360 24q-133 0 -217.5 83t-84.5 213q0 131 84.5 214t217.5 83q131 0 215.5 -83t86.5 -214q2 -130 -83 -213t-219 -83zM360 89q105 0 171.5 65t64.5 166q-1 102 -67.5 167t-168.5 65q-104 0 -170 -65t-66 -167q0 -101 66.5 -166t169.5 -65zM374 148q-88 0 -141 46.5 t-53 125.5q0 80 53 126.5t141 46.5q65 0 122 -32l-26 -91q-45 22 -88 22q-39 0 -61.5 -19t-22.5 -53q0 -33 22.5 -52.5t60.5 -19.5t89 23l26 -91q-53 -32 -122 -32z" glyph-name="copyright" horiz-adv-x="720" unicode="©"/><glyph d="M394 380h9l-7 -90h-25q-56 0 -82 23q-49 -33 -110 -33q-154 0 -154 112q0 65 58.5 93t174.5 34v3q0 47 -67 45q-53 0 -109 -28l-22 78q64 35 146 35q73 0 115.5 -37t42.5 -100v-94q0 -41 30 -41zM133 396q0 -34 59 -34q30 0 67 20q-1 8 -1 25v36q-125 -7 -125 -47z" glyph-name="ordfeminine" horiz-adv-x="428" unicode="ª"/><glyph d="M465 390l-131 -160l131 -160h-214l-131 160l131 160h214z" glyph-name="guillemotleft" horiz-adv-x="585" unicode="«"/><glyph d="M568 439v-290h-129v160h-369v130h498z" glyph-name="logicalnot" unicode="¬"/><glyph d="M350 570q1 -74 -48.5 -123t-123.5 -49t-123.5 49t-49.5 123t49.5 123.5t123.5 49.5q73 0 122 -49.5t50 -123.5zM178 433q59 0 98.5 39.5t38.5 97.5q-1 59 -40 98.5t-97 39.5q-59 0 -98.5 -39.5t-39.5 -98.5q0 -58 39.5 -97.5t98.5 -39.5zM256 597q0 -38 -36 -55l41 -61 h-54l-34 52h-1h-16v-52h-48v179h64q39 0 61.5 -17t22.5 -46zM156 619v-45h16q35 0 35 23q0 22 -35 22h-16z" glyph-name="registered" horiz-adv-x="355" unicode="®"/><glyph d="M160 355q-57 0 -96 39t-39 96q0 58 39 96.5t96 38.5t96 -39t39 -96t-39.5 -96t-95.5 -39zM160 446q19 0 32 13t13 31q0 19 -13 32t-32 13q-18 0 -31 -13t-13 -32q0 -18 13 -31t31 -13z" glyph-name="degree" horiz-adv-x="320" unicode="°"/><glyph d="M402 465h136v-142h-136v-94h-165v94h-137v142h137v94h165v-94zM100 58v142h438v-142h-438z" glyph-name="plusminus" unicode="±"/><glyph d="M29 376v49q107 87 145.5 127.5t38.5 73.5q0 16 -11.5 27t-31.5 11q-53 0 -101 -45l-26 85q67 65 151 65q66 0 104.5 -34.5t38.5 -95.5q0 -52 -27 -91.5t-85 -78.5h118v-93h-314z" glyph-name="uni00B2" horiz-adv-x="372" unicode="²"/><glyph d="M181 370q-83 0 -152 40l26 86q52 -28 105 -28q33 0 54 14t21 30q0 20 -20 32t-55 12q-40 0 -71 -9l-9 28l96 93h-115v92h271v-48l-90 -84q53 -6 85 -38t32 -78q0 -65 -48 -103.5t-130 -38.5z" glyph-name="uni00B3" horiz-adv-x="388" unicode="³"/><glyph d="M153 515h-95l67 120h128z" glyph-name="acute" horiz-adv-x="331" unicode="´"/><glyph d="M418 640v-640h-104v240h-22q-112 0 -173 52t-61 148q0 97 60.5 148.5t173.5 51.5h126zM474 640h104v-640h-104v640z" glyph-name="paragraph" horiz-adv-x="636" unicode="¶"/><glyph d="M152 156q-41 0 -67.5 24t-26.5 62q0 37 26.5 61t67.5 24t67 -23.5t26 -61.5t-26 -62t-67 -24z" glyph-name="periodcentered" horiz-adv-x="303" unicode="·"/><glyph d="M66 -197l-8 64h104q28 0 28 13q0 14 -28 14h-73l-5 9l36 97h71l-17 -53l15 -1q34 -3 53.5 -20t19.5 -46q0 -36 -26.5 -56.5t-73.5 -20.5h-96z" glyph-name="cedilla" horiz-adv-x="340" unicode="¸"/><glyph d="M101 376v252l-72 -29v105l135 56h61v-384h-124z" glyph-name="uni00B9" horiz-adv-x="295" unicode="¹"/><glyph d="M224 280q-89 0 -144 51.5t-55 134.5t55 134.5t144 51.5t144 -51.5t55 -134.5t-55 -134.5t-144 -51.5zM224 376q37 0 60.5 25t23.5 65t-23.5 65t-60.5 25t-60 -25t-23 -65t23 -65t60 -25z" glyph-name="ordmasculine" horiz-adv-x="448" unicode="º"/><glyph d="M184 390l131 -160l-131 -160h-159l131 160l-131 160h159zM429 390l131 -160l-131 -160h-159l131 160l-131 160h159z" glyph-name="guillemotright" horiz-adv-x="585" unicode="»"/><glyph d="M100 -5l469 697l70 -47l-469 -697zM101 276v252l-72 -29v105l135 56h61v-384h-124zM607 0v62h-209v55l186 267h128v-234h38v-88h-38v-62h-105zM527 150h80v120z" glyph-name="onequarter" horiz-adv-x="779" unicode="¼"/><glyph d="M100 -5l469 697l70 -47l-469 -697zM101 276v252l-72 -29v105l135 56h61v-384h-124zM473 0v49q107 87 145.5 127.5t38.5 73.5q0 16 -11.5 27t-31.5 11q-53 0 -101 -45l-26 85q67 65 151 65q66 0 104.5 -34.5t38.5 -95.5q0 -52 -27 -91.5t-85 -78.5h118v-93h-314z" glyph-name="onehalf" horiz-adv-x="816" unicode="½"/><glyph d="M193 -5l469 697l70 -47l-469 -697zM181 270q-83 0 -152 40l26 86q52 -28 105 -28q33 0 54 14t21 30q0 20 -20 32t-55 12q-40 0 -71 -9l-9 28l96 93h-115v92h271v-48l-90 -84q53 -6 85 -38t32 -78q0 -65 -48 -103.5t-130 -38.5zM700 0v62h-209v55l186 267h128v-234h38v-88 h-38v-62h-105zM620 150h80v120z" glyph-name="threequarters" horiz-adv-x="872" unicode="¾"/><glyph d="M276 434q41 0 67 -23.5t26 -61.5t-26 -62t-67 -24t-67.5 24t-26.5 62q0 37 26.5 61t67.5 24zM347 202v-19q0 -33 -10.5 -60t-26.5 -43.5t-34.5 -32.5t-34.5 -27.5t-26.5 -27.5t-10.5 -34q0 -48 64 -48q88 0 143 86l37 -128q-72 -102 -203 -102q-96 0 -156 49.5t-60 134.5 q0 42 16 73t38.5 48t45.5 31.5t39 34.5t16 46v19h163z" glyph-name="questiondown" horiz-adv-x="477" unicode="¿"/><glyph d="M439 715h-95l-100 120h128zM488 0l-35 94h-224l-35 -94h-188l277 640h116l277 -640h-188zM282 233h118l-59 157z" glyph-name="Agrave" horiz-adv-x="682" unicode="À"/><glyph d="M466 835l-100 -120h-95l67 120h128zM488 0l-35 94h-224l-35 -94h-188l277 640h116l277 -640h-188zM282 233h118l-59 157z" glyph-name="Aacute" horiz-adv-x="682" unicode="Á"/><glyph d="M341 769l-49 -54h-85l86 120h97l85 -120h-84zM488 0l-35 94h-224l-35 -94h-188l277 640h116l277 -640h-188zM282 233h118l-59 157z" glyph-name="Acircumflex" horiz-adv-x="682" unicode="Â"/><glyph d="M296 757q-25 0 -25 -44h-68q0 54 25 86.5t69 32.5q28 0 45 -13t26 -25.5t18 -12.5q25 0 25 44h69q0 -55 -25.5 -87.5t-68.5 -32.5q-22 0 -38 8t-22.5 18t-14 18t-15.5 8zM488 0l-35 94h-224l-35 -94h-188l277 640h116l277 -640h-188zM282 233h118l-59 157z" glyph-name="Atilde" horiz-adv-x="682" unicode="Ã"/><glyph d="M261 713q-25 0 -41 15t-16 37q0 23 16 38t41 15t40.5 -15t15.5 -38q0 -22 -16 -37t-40 -15zM423 713q-24 0 -40 15t-16 37q0 23 15.5 38t40.5 15t40.5 -15t15.5 -38q0 -22 -16 -37t-40 -15zM488 0l-35 94h-224l-35 -94h-188l277 640h116l277 -640h-188zM282 233h118 l-59 157z" glyph-name="Adieresis" horiz-adv-x="682" unicode="Ä"/><glyph d="M341 693q-41 0 -66 22t-25 57q0 36 24.5 58t66.5 22t66.5 -22t24.5 -58q0 -35 -25 -57t-66 -22zM341 803q-15 0 -25 -9t-10 -22t10 -21.5t25 -8.5t25 8.5t10 21.5t-10 22t-25 9zM488 0l-35 94h-224l-35 -94h-188l277 640h116l277 -640h-188zM282 233h118l-59 157z" glyph-name="Aring" horiz-adv-x="682" unicode="Å"/><glyph d="M844 496h-269v-103h259v-134h-259v-115h269v-144h-443v94h-160l-45 -94h-190l332 640h506v-144zM308 233h93v195z" glyph-name="AE" horiz-adv-x="867" unicode="Æ"/><glyph d="M613 51q-92 -64 -216 -65l-13 -39l15 -1q34 -3 53.5 -20t19.5 -46q0 -36 -26.5 -56.5t-73.5 -20.5h-96l-8 64h104q28 0 28 13q0 14 -28 14h-73l-5 9l32 87q-136 18 -216.5 107t-80.5 223q0 150 100 242t262 92q128 0 222 -64l-39 -140q-90 48 -180 48q-85 0 -137.5 -48.5 t-52.5 -129.5q0 -80 52 -129t137 -49q87 0 181 49z" glyph-name="Ccedilla" horiz-adv-x="636" unicode="Ç"/><glyph d="M377 715h-95l-100 120h128zM502 496h-269v-103h258v-134h-258v-115h269v-144h-444v640h444v-144z" glyph-name="Egrave" horiz-adv-x="525" unicode="È"/><glyph d="M405 835l-100 -120h-95l67 120h128zM502 496h-269v-103h258v-134h-258v-115h269v-144h-444v640h444v-144z" glyph-name="Eacute" horiz-adv-x="525" unicode="É"/><glyph d="M280 769l-49 -54h-85l86 120h97l85 -120h-84zM502 496h-269v-103h258v-134h-258v-115h269v-144h-444v640h444v-144z" glyph-name="Ecircumflex" horiz-adv-x="525" unicode="Ê"/><glyph d="M199 713q-25 0 -41 15t-16 37q0 23 16 38t41 15t40.5 -15t15.5 -38q0 -22 -16 -37t-40 -15zM361 713q-24 0 -40 15t-16 37q0 23 15.5 38t40.5 15t40.5 -15t15.5 -38q0 -22 -16 -37t-40 -15zM502 496h-269v-103h258v-134h-258v-115h269v-144h-444v640h444v-144z" glyph-name="Edieresis" horiz-adv-x="525" unicode="Ë"/><glyph d="M306 715h-95l-100 120h128zM295 135h93v-135h-359v135h92v370h-82v135h339v-135h-83v-370z" glyph-name="Igrave" horiz-adv-x="417" unicode="Ì"/><glyph d="M334 835l-100 -120h-95l67 120h128zM295 135h93v-135h-359v135h92v370h-82v135h339v-135h-83v-370z" glyph-name="Iacute" horiz-adv-x="417" unicode="Í"/><glyph d="M209 769l-49 -54h-85l86 120h97l85 -120h-84zM295 135h93v-135h-359v135h92v370h-82v135h339v-135h-83v-370z" glyph-name="Icircumflex" horiz-adv-x="417" unicode="Î"/><glyph d="M128 713q-25 0 -41 15t-16 37q0 23 16 38t41 15t40.5 -15t15.5 -38q0 -22 -16 -37t-40 -15zM290 713q-24 0 -40 15t-16 37q0 23 15.5 38t40.5 15t40.5 -15t15.5 -38q0 -22 -16 -37t-40 -15zM295 135h93v-135h-359v135h92v370h-82v135h339v-135h-83v-370z" glyph-name="Idieresis" horiz-adv-x="417" unicode="Ï"/><glyph d="M274 640q172 0 270.5 -85.5t98.5 -234.5t-98.5 -234.5t-270.5 -85.5h-216v263h-51v114h51v263h216zM274 155q91 0 142.5 44t51.5 121t-51.5 121t-142.5 44h-41v-108h80v-114h-80v-108h41z" glyph-name="Eth" horiz-adv-x="672" unicode="Ð"/><glyph d="M392 705q-22 0 -38 8t-22.5 18t-14 18t-15.5 8q-25 0 -25 -44h-68q0 54 25 86.5t69 32.5q28 0 45 -13t26 -25.5t18 -12.5q25 0 25 44h69q0 -55 -25.5 -87.5t-68.5 -32.5zM58 0v640h95l309 -330v330h175v-640h-95l-309 331v-331h-175z" glyph-name="Ntilde" horiz-adv-x="695" unicode="Ñ"/><glyph d="M386 715l-100 120h128l67 -120h-95zM384 -14q-156 0 -255.5 94t-99.5 240t99.5 240t255.5 94q155 0 254.5 -94t99.5 -240t-99.5 -240t-254.5 -94zM384 141q79 0 129.5 50.5t50.5 128.5t-50.5 128t-129.5 50t-130 -50t-51 -128t51 -128.5t130 -50.5z" glyph-name="Ograve" horiz-adv-x="767" unicode="Ò"/><glyph d="M409 715h-95l67 120h128zM384 -14q-156 0 -255.5 94t-99.5 240t99.5 240t255.5 94q155 0 254.5 -94t99.5 -240t-99.5 -240t-254.5 -94zM384 141q79 0 129.5 50.5t50.5 128.5t-50.5 128t-129.5 50t-130 -50t-51 -128t51 -128.5t130 -50.5z" glyph-name="Oacute" horiz-adv-x="767" unicode="Ó"/><glyph d="M250 715l86 120h97l85 -120h-84l-50 54l-49 -54h-85zM384 -14q-156 0 -255.5 94t-99.5 240t99.5 240t255.5 94q155 0 254.5 -94t99.5 -240t-99.5 -240t-254.5 -94zM384 141q79 0 129.5 50.5t50.5 128.5t-50.5 128t-129.5 50t-130 -50t-51 -128t51 -128.5t130 -50.5z" glyph-name="Ocircumflex" horiz-adv-x="767" unicode="Ô"/><glyph d="M428 705q-22 0 -38 8t-22.5 18t-14 18t-15.5 8q-25 0 -25 -44h-68q0 54 25 86.5t69 32.5q28 0 45 -13t26 -25.5t18 -12.5q25 0 25 44h69q0 -55 -25.5 -87.5t-68.5 -32.5zM384 -14q-156 0 -255.5 94t-99.5 240t99.5 240t255.5 94q155 0 254.5 -94t99.5 -240t-99.5 -240 t-254.5 -94zM384 141q79 0 129.5 50.5t50.5 128.5t-50.5 128t-129.5 50t-130 -50t-51 -128t51 -128.5t130 -50.5z" glyph-name="Otilde" horiz-adv-x="767" unicode="Õ"/><glyph d="M303 713q-25 0 -41 15t-16 37q0 23 16 38t41 15t40.5 -15t15.5 -38q0 -22 -16 -37t-40 -15zM465 713q-24 0 -40 15t-16 37q0 23 15.5 38t40.5 15t40.5 -15t15.5 -38q0 -22 -16 -37t-40 -15zM384 -14q-156 0 -255.5 94t-99.5 240t99.5 240t255.5 94q155 0 254.5 -94 t99.5 -240t-99.5 -240t-254.5 -94zM384 141q79 0 129.5 50.5t50.5 128.5t-50.5 128t-129.5 50t-130 -50t-51 -128t51 -128.5t130 -50.5z" glyph-name="Odieresis" horiz-adv-x="767" unicode="Ö"/><glyph d="M176 85l-89 98l133 121l-132 121l88 99l144 -130l143 130l88 -98l-133 -122l133 -121l-88 -98l-143 130z" glyph-name="multiply" unicode="×"/><glyph d="M763 640l-100 -105q75 -89 75 -215q0 -146 -99.5 -240t-254.5 -94q-111 0 -197 50l-34 -36h-155l104 109q-73 87 -73 211q0 146 99.5 240t255.5 94q108 0 192 -48l32 34h155zM203 320q0 -45 19 -85l237 249q-34 14 -75 14q-79 0 -130 -50t-51 -128zM564 320q0 47 -21 89 l-240 -251q37 -17 81 -17q79 0 129.5 50.5t50.5 128.5z" glyph-name="Oslash" horiz-adv-x="767" unicode="Ø"/><glyph d="M331 715l-100 120h128l67 -120h-95zM328 -14q-131 0 -206.5 82t-75.5 220v352h175v-352q0 -147 107 -147q109 0 109 147v352h174v-352q0 -138 -76 -220t-207 -82z" glyph-name="Ugrave" horiz-adv-x="657" unicode="Ù"/><glyph d="M354 715h-95l67 120h128zM328 -14q-131 0 -206.5 82t-75.5 220v352h175v-352q0 -147 107 -147q109 0 109 147v352h174v-352q0 -138 -76 -220t-207 -82z" glyph-name="Uacute" horiz-adv-x="657" unicode="Ú"/><glyph d="M195 715l86 120h97l85 -120h-84l-50 54l-49 -54h-85zM328 -14q-131 0 -206.5 82t-75.5 220v352h175v-352q0 -147 107 -147q109 0 109 147v352h174v-352q0 -138 -76 -220t-207 -82z" glyph-name="Ucircumflex" horiz-adv-x="657" unicode="Û"/><glyph d="M248 713q-25 0 -41 15t-16 37q0 23 16 38t41 15t40.5 -15t15.5 -38q0 -22 -16 -37t-40 -15zM410 713q-24 0 -40 15t-16 37q0 23 15.5 38t40.5 15t40.5 -15t15.5 -38q0 -22 -16 -37t-40 -15zM328 -14q-131 0 -206.5 82t-75.5 220v352h175v-352q0 -147 107 -147 q109 0 109 147v352h174v-352q0 -138 -76 -220t-207 -82z" glyph-name="Udieresis" horiz-adv-x="657" unicode="Ü"/><glyph d="M447 835l-100 -120h-95l67 120h128zM637 640l-228 -416v-224h-174v222l-229 418h192l124 -270l123 270h192z" glyph-name="Yacute" horiz-adv-x="643" unicode="Ý"/><glyph d="M299 542q134 0 211 -59.5t77 -162.5t-77 -162t-211 -59h-66v-99h-175v640h175v-98h66zM299 246q53 0 83.5 20t30.5 54t-30.5 54t-83.5 20h-66v-148h66z" glyph-name="Thorn" horiz-adv-x="616" unicode="Þ"/><glyph d="M464 -14q-118 0 -194 61l35 116q69 -49 123 -51q34 -1 54 15t20 47q0 50 -54 82t-154 43v108q40 24 59 53t19 74q0 38 -21.5 62.5t-60.5 24.5q-36 0 -55.5 -24t-19.5 -67v-530h-165v530q0 108 60.5 166t173.5 58q110 0 176 -53.5t66 -146.5q0 -122 -94 -170 q112 -15 173 -70t61 -145q0 -85 -52.5 -134t-149.5 -49z" glyph-name="germandbls" horiz-adv-x="691" unicode="ß"/><glyph d="M359 515h-95l-100 120h128zM506 126h12l-11 -126h-36q-69 0 -105 26q-62 -40 -139 -40q-202 0 -202 143q0 82 72.5 117.5t221.5 42.5v1q0 22 -21 34.5t-55 11.5q-68 0 -142 -30l-30 108q86 40 192 40q95 0 150.5 -46.5t55.5 -126.5v-106q0 -26 8.5 -37.5t28.5 -11.5z M179 135q0 -35 67 -35q36 2 75 20q-2 20 -2 32v32q-74 -4 -107 -15t-33 -34z" glyph-name="agrave" horiz-adv-x="528" unicode="à"/><glyph d="M387 635l-100 -120h-95l67 120h128zM506 126h12l-11 -126h-36q-69 0 -105 26q-62 -40 -139 -40q-202 0 -202 143q0 82 72.5 117.5t221.5 42.5v1q0 22 -21 34.5t-55 11.5q-68 0 -142 -30l-30 108q86 40 192 40q95 0 150.5 -46.5t55.5 -126.5v-106q0 -26 8.5 -37.5 t28.5 -11.5zM179 135q0 -35 67 -35q36 2 75 20q-2 20 -2 32v32q-74 -4 -107 -15t-33 -34z" glyph-name="aacute" horiz-adv-x="528" unicode="á"/><glyph d="M262 569l-49 -54h-85l86 120h97l85 -120h-84zM506 126h12l-11 -126h-36q-69 0 -105 26q-62 -40 -139 -40q-202 0 -202 143q0 82 72.5 117.5t221.5 42.5v1q0 22 -21 34.5t-55 11.5q-68 0 -142 -30l-30 108q86 40 192 40q95 0 150.5 -46.5t55.5 -126.5v-106 q0 -26 8.5 -37.5t28.5 -11.5zM179 135q0 -35 67 -35q36 2 75 20q-2 20 -2 32v32q-74 -4 -107 -15t-33 -34z" glyph-name="acircumflex" horiz-adv-x="528" unicode="â"/><glyph d="M216 557q-25 0 -25 -44h-68q0 54 25 86.5t69 32.5q28 0 45 -13t26 -25.5t18 -12.5q25 0 25 44h69q0 -55 -25.5 -87.5t-68.5 -32.5q-22 0 -38 8t-22.5 18t-14 18t-15.5 8zM506 126h12l-11 -126h-36q-69 0 -105 26q-62 -40 -139 -40q-202 0 -202 143q0 82 72.5 117.5 t221.5 42.5v1q0 22 -21 34.5t-55 11.5q-68 0 -142 -30l-30 108q86 40 192 40q95 0 150.5 -46.5t55.5 -126.5v-106q0 -26 8.5 -37.5t28.5 -11.5zM179 135q0 -35 67 -35q36 2 75 20q-2 20 -2 32v32q-74 -4 -107 -15t-33 -34z" glyph-name="atilde" horiz-adv-x="528" unicode="ã"/><glyph d="M181 513q-25 0 -41 15t-16 37q0 23 16 38t41 15t40.5 -15t15.5 -38q0 -22 -16 -37t-40 -15zM343 513q-24 0 -40 15t-16 37q0 23 15.5 38t40.5 15t40.5 -15t15.5 -38q0 -22 -16 -37t-40 -15zM506 126h12l-11 -126h-36q-69 0 -105 26q-62 -40 -139 -40q-202 0 -202 143 q0 82 72.5 117.5t221.5 42.5v1q0 22 -21 34.5t-55 11.5q-68 0 -142 -30l-30 108q86 40 192 40q95 0 150.5 -46.5t55.5 -126.5v-106q0 -26 8.5 -37.5t28.5 -11.5zM179 135q0 -35 67 -35q36 2 75 20q-2 20 -2 32v32q-74 -4 -107 -15t-33 -34z" glyph-name="adieresis" horiz-adv-x="528" unicode="ä"/><glyph d="M262 493q-41 0 -66 22t-25 57q0 36 24.5 58t66.5 22t66.5 -22t24.5 -58q0 -35 -25 -57t-66 -22zM262 603q-15 0 -25 -9t-10 -22t10 -21.5t25 -8.5t25 8.5t10 21.5t-10 22t-25 9zM506 126h12l-11 -126h-36q-69 0 -105 26q-62 -40 -139 -40q-202 0 -202 143 q0 82 72.5 117.5t221.5 42.5v1q0 22 -21 34.5t-55 11.5q-68 0 -142 -30l-30 108q86 40 192 40q95 0 150.5 -46.5t55.5 -126.5v-106q0 -26 8.5 -37.5t28.5 -11.5zM179 135q0 -35 67 -35q36 2 75 20q-2 20 -2 32v32q-74 -4 -107 -15t-33 -34z" glyph-name="aring" horiz-adv-x="528" unicode="å"/><glyph d="M805 244q0 -30 -13 -72h-317q29 -58 106 -58q84 0 151 27l30 -106q-81 -45 -178 -45q-117 0 -189 57q-73 -61 -168 -61q-202 0 -202 143q0 77 72.5 110.5t221.5 39.5v1v10q0 22 -21 34.5t-55 11.5q-68 0 -142 -30l-30 108q86 40 192 40q92 0 147 -44q69 44 168 44 q105 0 166 -57.5t61 -152.5zM575 330q-79 0 -104 -64h189q-5 31 -28 47.5t-57 16.5zM179 135q0 -35 67 -35q34 2 73 19v50q-1 2 -1 5t-1 5q-73 -4 -105.5 -14t-32.5 -30z" glyph-name="ae" horiz-adv-x="830" unicode="æ"/><glyph d="M483 37q-64 -44 -156 -50l-13 -40l15 -1q34 -3 53.5 -20t19.5 -46q0 -36 -26.5 -56.5t-73.5 -20.5h-96l-8 64h104q28 0 28 13q0 14 -28 14h-73l-5 9l32 85q-106 12 -168.5 74t-62.5 158q0 106 75.5 170t200.5 64q109 0 182 -50l-34 -116q-80 30 -138 32q-55 1 -88 -27 t-33 -74q0 -45 32.5 -71.5t88.5 -26.5q63 0 138 32z" glyph-name="ccedilla" horiz-adv-x="503" unicode="ç"/><glyph d="M369 515h-95l-100 120h128zM517 244q0 -30 -13 -72h-317q29 -58 106 -58q84 0 151 27l30 -106q-81 -45 -178 -45q-122 0 -196.5 64t-74.5 171q0 104 72.5 166.5t192.5 62.5q105 0 166 -57.5t61 -152.5zM287 330q-79 0 -104 -64h189q-5 31 -28 47.5t-57 16.5z" glyph-name="egrave" horiz-adv-x="542" unicode="è"/><glyph d="M396 635l-100 -120h-95l67 120h128zM517 244q0 -30 -13 -72h-317q29 -58 106 -58q84 0 151 27l30 -106q-81 -45 -178 -45q-122 0 -196.5 64t-74.5 171q0 104 72.5 166.5t192.5 62.5q105 0 166 -57.5t61 -152.5zM287 330q-79 0 -104 -64h189q-5 31 -28 47.5t-57 16.5z" glyph-name="eacute" horiz-adv-x="542" unicode="é"/><glyph d="M271 569l-49 -54h-85l86 120h97l85 -120h-84zM517 244q0 -30 -13 -72h-317q29 -58 106 -58q84 0 151 27l30 -106q-81 -45 -178 -45q-122 0 -196.5 64t-74.5 171q0 104 72.5 166.5t192.5 62.5q105 0 166 -57.5t61 -152.5zM287 330q-79 0 -104 -64h189q-5 31 -28 47.5 t-57 16.5z" glyph-name="ecircumflex" horiz-adv-x="542" unicode="ê"/><glyph d="M191 513q-25 0 -41 15t-16 37q0 23 16 38t41 15t40.5 -15t15.5 -38q0 -22 -16 -37t-40 -15zM353 513q-24 0 -40 15t-16 37q0 23 15.5 38t40.5 15t40.5 -15t15.5 -38q0 -22 -16 -37t-40 -15zM517 244q0 -30 -13 -72h-317q29 -58 106 -58q84 0 151 27l30 -106 q-81 -45 -178 -45q-122 0 -196.5 64t-74.5 171q0 104 72.5 166.5t192.5 62.5q105 0 166 -57.5t61 -152.5zM287 330q-79 0 -104 -64h189q-5 31 -28 47.5t-57 16.5z" glyph-name="edieresis" horiz-adv-x="542" unicode="ë"/><glyph d="M135 515l-100 120h128l67 -120h-95zM50 0v440h165v-440h-165z" glyph-name="igrave" horiz-adv-x="265" unicode="ì"/><glyph d="M158 515h-95l67 120h128zM50 0v440h165v-440h-165z" glyph-name="iacute" horiz-adv-x="265" unicode="í"/><glyph d="M-2 515l86 120h97l85 -120h-84l-50 54l-49 -54h-85zM50 0v440h165v-440h-165z" glyph-name="icircumflex" horiz-adv-x="265" unicode="î"/><glyph d="M52 513q-25 0 -41 15t-16 37q0 23 16 38t41 15t40.5 -15t15.5 -38q0 -22 -16 -37t-40 -15zM214 513q-24 0 -40 15t-16 37q0 23 15.5 38t40.5 15t40.5 -15t15.5 -38q0 -22 -16 -37t-40 -15zM50 0v440h165v-440h-165z" glyph-name="idieresis" horiz-adv-x="265" unicode="ï"/><glyph d="M469 565q60 -103 60 -245q0 -155 -64.5 -244.5t-176.5 -89.5q-122 0 -192.5 62.5t-70.5 171.5t56.5 171.5t154.5 62.5q107 0 156 -74q-9 81 -55 142l-148 -49l-26 80l99 32q-70 38 -164 35l42 133q173 -10 277 -118l72 24l26 -79zM278 121q41 0 64.5 26t23.5 72 q0 47 -24 74t-66 27q-40 0 -63 -27t-23 -73t23.5 -72.5t64.5 -26.5z" glyph-name="eth" horiz-adv-x="558" unicode="ð"/><glyph d="M241 557q-25 0 -25 -44h-68q0 54 25 86.5t69 32.5q28 0 45 -13t26 -25.5t18 -12.5q25 0 25 44h69q0 -55 -25.5 -87.5t-68.5 -32.5q-22 0 -38 8t-22.5 18t-14 18t-15.5 8zM314 454q98 0 153 -58t55 -160v-236h-164v236q0 39 -17.5 61.5t-47.5 22.5q-36 0 -57 -22.5 t-21 -61.5v-236h-165v440h130l3 -52q46 66 131 66z" glyph-name="ntilde" horiz-adv-x="572" unicode="ñ"/><glyph d="M285 515l-100 120h128l67 -120h-95zM282 -14q-116 0 -186.5 64t-70.5 170t70.5 170t186.5 64t186.5 -64t70.5 -170t-70.5 -170t-186.5 -64zM282 121q41 0 67 27.5t26 71.5q0 45 -26 72.5t-67 27.5t-66.5 -27.5t-25.5 -72.5q0 -44 25.5 -71.5t66.5 -27.5z" glyph-name="ograve" horiz-adv-x="564" unicode="ò"/><glyph d="M307 515h-95l67 120h128zM282 -14q-116 0 -186.5 64t-70.5 170t70.5 170t186.5 64t186.5 -64t70.5 -170t-70.5 -170t-186.5 -64zM282 121q41 0 67 27.5t26 71.5q0 45 -26 72.5t-67 27.5t-66.5 -27.5t-25.5 -72.5q0 -44 25.5 -71.5t66.5 -27.5z" glyph-name="oacute" horiz-adv-x="564" unicode="ó"/><glyph d="M148 515l86 120h97l85 -120h-84l-50 54l-49 -54h-85zM282 -14q-116 0 -186.5 64t-70.5 170t70.5 170t186.5 64t186.5 -64t70.5 -170t-70.5 -170t-186.5 -64zM282 121q41 0 67 27.5t26 71.5q0 45 -26 72.5t-67 27.5t-66.5 -27.5t-25.5 -72.5q0 -44 25.5 -71.5t66.5 -27.5z " glyph-name="ocircumflex" horiz-adv-x="564" unicode="ô"/><glyph d="M327 505q-22 0 -38 8t-22.5 18t-14 18t-15.5 8q-25 0 -25 -44h-68q0 54 25 86.5t69 32.5q28 0 45 -13t26 -25.5t18 -12.5q25 0 25 44h69q0 -55 -25.5 -87.5t-68.5 -32.5zM282 -14q-116 0 -186.5 64t-70.5 170t70.5 170t186.5 64t186.5 -64t70.5 -170t-70.5 -170 t-186.5 -64zM282 121q41 0 67 27.5t26 71.5q0 45 -26 72.5t-67 27.5t-66.5 -27.5t-25.5 -72.5q0 -44 25.5 -71.5t66.5 -27.5z" glyph-name="otilde" horiz-adv-x="564" unicode="õ"/><glyph d="M202 513q-25 0 -41 15t-16 37q0 23 16 38t41 15t40.5 -15t15.5 -38q0 -22 -16 -37t-40 -15zM364 513q-24 0 -40 15t-16 37q0 23 15.5 38t40.5 15t40.5 -15t15.5 -38q0 -22 -16 -37t-40 -15zM282 -14q-116 0 -186.5 64t-70.5 170t70.5 170t186.5 64t186.5 -64t70.5 -170 t-70.5 -170t-186.5 -64zM282 121q41 0 67 27.5t26 71.5q0 45 -26 72.5t-67 27.5t-66.5 -27.5t-25.5 -72.5q0 -44 25.5 -71.5t66.5 -27.5z" glyph-name="odieresis" horiz-adv-x="564" unicode="ö"/><glyph d="M320 410q-34 0 -55.5 19.5t-21.5 51.5q0 31 21.5 51t55.5 20t55.5 -20t21.5 -51t-21.5 -51t-55.5 -20zM100 233v142h438v-142h-438zM320 57q-34 0 -55.5 19.5t-21.5 51.5q0 31 21.5 51t55.5 20t55.5 -20t21.5 -51t-21.5 -51t-55.5 -20z" glyph-name="divide" unicode="÷"/><glyph d="M559 440l-71 -71q51 -60 51 -149q0 -106 -70.5 -170t-186.5 -64q-83 0 -143 34l-20 -20h-114l71 71q-51 60 -51 149q0 106 70.5 170t186.5 64q83 0 143 -34l20 20h114zM190 220q0 -19 4 -31l124 124q-15 7 -36 7q-41 0 -66.5 -27.5t-25.5 -72.5zM375 220q0 19 -4 32 l-125 -125q16 -6 36 -6q41 0 67 27.5t26 71.5z" glyph-name="oslash" horiz-adv-x="564" unicode="ø"/><glyph d="M282 515l-100 120h128l67 -120h-95zM280 -14q-105 0 -167.5 58t-62.5 155v241h165v-241q0 -36 17.5 -57t47.5 -21t47.5 21.5t17.5 56.5v241h164v-241q0 -97 -62 -155t-167 -58z" glyph-name="ugrave" horiz-adv-x="559" unicode="ù"/><glyph d="M305 515h-95l67 120h128zM280 -14q-105 0 -167.5 58t-62.5 155v241h165v-241q0 -36 17.5 -57t47.5 -21t47.5 21.5t17.5 56.5v241h164v-241q0 -97 -62 -155t-167 -58z" glyph-name="uacute" horiz-adv-x="559" unicode="ú"/><glyph d="M146 515l86 120h97l85 -120h-84l-50 54l-49 -54h-85zM280 -14q-105 0 -167.5 58t-62.5 155v241h165v-241q0 -36 17.5 -57t47.5 -21t47.5 21.5t17.5 56.5v241h164v-241q0 -97 -62 -155t-167 -58z" glyph-name="ucircumflex" horiz-adv-x="559" unicode="û"/><glyph d="M199 513q-25 0 -41 15t-16 37q0 23 16 38t41 15t40.5 -15t15.5 -38q0 -22 -16 -37t-40 -15zM361 513q-24 0 -40 15t-16 37q0 23 15.5 38t40.5 15t40.5 -15t15.5 -38q0 -22 -16 -37t-40 -15zM280 -14q-105 0 -167.5 58t-62.5 155v241h165v-241q0 -36 17.5 -57t47.5 -21 t47.5 21.5t17.5 56.5v241h164v-241q0 -97 -62 -155t-167 -58z" glyph-name="udieresis" horiz-adv-x="559" unicode="ü"/><glyph d="M415 635l-100 -120h-95l67 120h128zM365 440h165v-410q0 -121 -69 -192.5t-185 -71.5q-132 0 -216 67l36 124q68 -57 156 -57q54 0 83.5 36t29.5 94v3q-45 -47 -112 -47q-92 0 -147.5 58t-55.5 155v241h165v-241q0 -35 18.5 -56.5t48.5 -21.5q38 0 60.5 21.5t22.5 56.5 v241z" glyph-name="yacute" horiz-adv-x="580" unicode="ý"/><glyph d="M340 454q97 0 158.5 -64.5t61.5 -169.5t-61.5 -169.5t-158.5 -64.5q-76 0 -125 38v-244h-165v960h165v-324q49 38 125 38zM311 121q38 0 61.5 27.5t23.5 71.5q0 45 -23.5 72.5t-61.5 27.5q-44 0 -70 -27.5t-26 -72.5t26 -72t70 -27z" glyph-name="thorn" horiz-adv-x="585" unicode="þ"/><glyph d="M210 513q-25 0 -41 15t-16 37q0 23 16 38t41 15t40.5 -15t15.5 -38q0 -22 -16 -37t-40 -15zM372 513q-24 0 -40 15t-16 37q0 23 15.5 38t40.5 15t40.5 -15t15.5 -38q0 -22 -16 -37t-40 -15zM365 440h165v-410q0 -121 -69 -192.5t-185 -71.5q-132 0 -216 67l36 124 q68 -57 156 -57q54 0 83.5 36t29.5 94v3q-45 -47 -112 -47q-92 0 -147.5 58t-55.5 155v241h165v-241q0 -35 18.5 -56.5t48.5 -21.5q38 0 60.5 21.5t22.5 56.5v241z" glyph-name="ydieresis" horiz-adv-x="580" unicode="ÿ"/><glyph d="M479 803v-78h-275v78h275zM488 0l-35 94h-224l-35 -94h-188l277 640h116l277 -640h-188zM282 233h118l-59 157z" glyph-name="Amacron" horiz-adv-x="682" unicode="Ā"/><glyph d="M399 603v-78h-275v78h275zM506 126h12l-11 -126h-36q-69 0 -105 26q-62 -40 -139 -40q-202 0 -202 143q0 82 72.5 117.5t221.5 42.5v1q0 22 -21 34.5t-55 11.5q-68 0 -142 -30l-30 108q86 40 192 40q95 0 150.5 -46.5t55.5 -126.5v-106q0 -26 8.5 -37.5t28.5 -11.5z M179 135q0 -35 67 -35q36 2 75 20q-2 20 -2 32v32q-74 -4 -107 -15t-33 -34z" glyph-name="amacron" horiz-adv-x="528" unicode="ā"/><glyph d="M342 717q-55 0 -86.5 31.5t-31.5 86.5h70q0 -22 13 -34.5t35 -12.5t35 12.5t13 34.5h69q0 -55 -31.5 -86.5t-85.5 -31.5zM488 0l-35 94h-224l-35 -94h-188l277 640h116l277 -640h-188zM282 233h118l-59 157z" glyph-name="Abreve" horiz-adv-x="682" unicode="Ă"/><glyph d="M262 517q-55 0 -86.5 31.5t-31.5 86.5h70q0 -22 13 -34.5t35 -12.5t35 12.5t13 34.5h69q0 -55 -31.5 -86.5t-85.5 -31.5zM506 126h12l-11 -126h-36q-69 0 -105 26q-62 -40 -139 -40q-202 0 -202 143q0 82 72.5 117.5t221.5 42.5v1q0 22 -21 34.5t-55 11.5q-68 0 -142 -30 l-30 108q86 40 192 40q95 0 150.5 -46.5t55.5 -126.5v-106q0 -26 8.5 -37.5t28.5 -11.5zM179 135q0 -35 67 -35q36 2 75 20q-2 20 -2 32v32q-74 -4 -107 -15t-33 -34z" glyph-name="abreve" horiz-adv-x="528" unicode="ă"/><glyph d="M589 -93q0 -28 49 -28h23l-6 -67h-35q-102 0 -102 74q0 60 80 114h-110l-35 94h-224l-35 -94h-188l277 640h116l277 -640q-87 -50 -87 -93zM282 233h118l-59 157z" glyph-name="Aogonek" horiz-adv-x="682" unicode="Ą"/><glyph d="M507 0q-87 -50 -87 -93q0 -28 49 -28h23l-6 -67h-35q-102 0 -102 74q0 62 84 116q-41 6 -67 24q-62 -40 -139 -40q-202 0 -202 143q0 82 72.5 117.5t221.5 42.5v1q0 22 -21 34.5t-55 11.5q-68 0 -142 -30l-30 108q86 40 192 40q95 0 150.5 -46.5t55.5 -126.5v-106 q0 -26 8.5 -37.5t28.5 -11.5h12zM179 135q0 -35 67 -35q36 2 75 20q-2 20 -2 32v32q-74 -4 -107 -15t-33 -34z" glyph-name="aogonek" horiz-adv-x="528" unicode="ą"/><glyph d="M380 715h-95l67 120h128zM391 -14q-162 0 -262 92t-100 242t100 242t262 92q128 0 222 -64l-39 -140q-90 48 -180 48q-85 0 -137.5 -48.5t-52.5 -129.5q0 -80 52 -129t137 -49q87 0 181 49l39 -140q-94 -65 -222 -65z" glyph-name="Cacute" horiz-adv-x="636" unicode="Ć"/><glyph d="M275 515h-95l67 120h128zM301 -14q-125 0 -200.5 64t-75.5 170t75.5 170t200.5 64q109 0 182 -50l-34 -116q-80 30 -138 32q-55 1 -88 -27t-33 -74q0 -45 32.5 -71.5t88.5 -26.5q63 0 138 32l34 -116q-75 -51 -182 -51z" glyph-name="cacute" horiz-adv-x="503" unicode="ć"/><glyph d="M499 835l-86 -120h-97l-85 120h84l50 -53l49 53h85zM391 -14q-162 0 -262 92t-100 242t100 242t262 92q128 0 222 -64l-39 -140q-90 48 -180 48q-85 0 -137.5 -48.5t-52.5 -129.5q0 -80 52 -129t137 -49q87 0 181 49l39 -140q-94 -65 -222 -65z" glyph-name="Ccaron" horiz-adv-x="636" unicode="Č"/><glyph d="M394 635l-86 -120h-97l-85 120h84l50 -53l49 53h85zM301 -14q-125 0 -200.5 64t-75.5 170t75.5 170t200.5 64q109 0 182 -50l-34 -116q-80 30 -138 32q-55 1 -88 -27t-33 -74q0 -45 32.5 -71.5t88.5 -26.5q63 0 138 32l34 -116q-75 -51 -182 -51z" glyph-name="ccaron" horiz-adv-x="503" unicode="č"/><glyph d="M395 715h-97l-85 120h84l50 -53l49 53h85zM274 640q172 0 270.5 -85.5t98.5 -234.5t-98.5 -234.5t-270.5 -85.5h-216v640h216zM274 155q91 0 142.5 44t51.5 121t-51.5 121t-142.5 44h-41v-330h41z" glyph-name="Dcaron" horiz-adv-x="672" unicode="Ď"/><glyph d="M371 416v324h164v-740h-129l-7 52q-52 -66 -154 -66q-97 0 -158.5 64.5t-61.5 169.5t61.5 169.5t158.5 64.5q77 0 126 -38zM609 635h114l-56 -145h-91zM275 121q44 0 70 27t26 72t-26 72.5t-70 27.5q-38 0 -61.5 -27.5t-23.5 -72.5q0 -44 23.5 -71.5t61.5 -27.5z" glyph-name="dcaron" horiz-adv-x="585" unicode="ď"/><glyph d="M274 640q172 0 270.5 -85.5t98.5 -234.5t-98.5 -234.5t-270.5 -85.5h-216v263h-51v114h51v263h216zM274 155q91 0 142.5 44t51.5 121t-51.5 121t-142.5 44h-41v-108h80v-114h-80v-108h41z" glyph-name="Dcroat" horiz-adv-x="672" unicode="Đ"/><glyph d="M597 650v-114h-62v-536h-129l-7 52q-52 -66 -154 -66q-97 0 -158.5 64.5t-61.5 169.5t61.5 169.5t158.5 64.5q77 0 126 -38v120h-80v114h80v90h164v-90h62zM275 121q44 0 70 27t26 72t-26 72.5t-70 27.5q-38 0 -61.5 -27.5t-23.5 -72.5q0 -44 23.5 -71.5t61.5 -27.5z" glyph-name="dcroat" horiz-adv-x="585" unicode="đ"/><glyph d="M417 803v-78h-275v78h275zM502 496h-269v-103h258v-134h-258v-115h269v-144h-444v640h444v-144z" glyph-name="Emacron" horiz-adv-x="525" unicode="Ē"/><glyph d="M409 603v-78h-275v78h275zM517 244q0 -30 -13 -72h-317q29 -58 106 -58q84 0 151 27l30 -106q-81 -45 -178 -45q-122 0 -196.5 64t-74.5 171q0 104 72.5 166.5t192.5 62.5q105 0 166 -57.5t61 -152.5zM287 330q-79 0 -104 -64h189q-5 31 -28 47.5t-57 16.5z" glyph-name="emacron" horiz-adv-x="542" unicode="ē"/><glyph d="M280 704q-29 0 -48 17t-19 44t19 44.5t48 17.5q30 0 48.5 -17.5t18.5 -44.5t-18.5 -44t-48.5 -17zM502 496h-269v-103h258v-134h-258v-115h269v-144h-444v640h444v-144z" glyph-name="Edotaccent" horiz-adv-x="525" unicode="Ė"/><glyph d="M271 504q-29 0 -48 17t-19 44t19 44.5t48 17.5q30 0 48.5 -17.5t18.5 -44.5t-18.5 -44t-48.5 -17zM517 244q0 -30 -13 -72h-317q29 -58 106 -58q84 0 151 27l30 -106q-81 -45 -178 -45q-122 0 -196.5 64t-74.5 171q0 104 72.5 166.5t192.5 62.5q105 0 166 -57.5 t61 -152.5zM287 330q-79 0 -104 -64h189q-5 31 -28 47.5t-57 16.5z" glyph-name="edotaccent" horiz-adv-x="542" unicode="ė"/><glyph d="M502 496h-269v-103h258v-134h-258v-115h269v-144q-87 -50 -87 -93q0 -28 49 -28h23l-6 -67h-35q-102 0 -102 74q0 60 80 114h-366v640h444v-144z" glyph-name="Eogonek" horiz-adv-x="525" unicode="Ę"/><glyph d="M517 244q0 -30 -13 -72h-317q29 -58 106 -58q84 0 151 27l30 -106q-57 -32 -127 -41q-76 -46 -76 -87q0 -28 49 -28h23l-6 -67h-35q-102 0 -102 74q0 55 67 105q-110 8 -176 70.5t-66 163.5q0 104 72.5 166.5t192.5 62.5q105 0 166 -57.5t61 -152.5zM287 330 q-79 0 -104 -64h189q-5 31 -28 47.5t-57 16.5z" glyph-name="eogonek" horiz-adv-x="542" unicode="ę"/><glyph d="M338 715h-97l-85 120h84l50 -53l49 53h85zM502 496h-269v-103h258v-134h-258v-115h269v-144h-444v640h444v-144z" glyph-name="Ecaron" horiz-adv-x="525" unicode="Ě"/><glyph d="M329 515h-97l-85 120h84l50 -53l49 53h85zM517 244q0 -30 -13 -72h-317q29 -58 106 -58q84 0 151 27l30 -106q-81 -45 -178 -45q-122 0 -196.5 64t-74.5 171q0 104 72.5 166.5t192.5 62.5q105 0 166 -57.5t61 -152.5zM287 330q-79 0 -104 -64h189q-5 31 -28 47.5 t-57 16.5z" glyph-name="ecaron" horiz-adv-x="542" unicode="ě"/><glyph d="M378 361h282v-288q-112 -87 -270 -87q-161 0 -261 92t-100 243q0 149 100 241t262 92q128 0 222 -64l-39 -140q-90 48 -180 48q-85 0 -137.5 -48.5t-52.5 -127.5q0 -80 54 -133t139 -53q57 0 98 22v74h-117v129zM378 -42q31 0 53 -20t22 -60q0 -49 -28 -89.5t-70 -49.5 l-17 45q30 11 44.5 27.5t12.5 29.5q-12 -6 -25 -6q-31 0 -49 16t-18 42q0 29 21 47t54 18z" glyph-name="Gcommaaccent" horiz-adv-x="695" unicode="Ģ"/><glyph d="M299 501q-32 0 -53.5 19.5t-21.5 59.5q0 49 27.5 89.5t70.5 49.5l16 -44q-30 -11 -44 -27.5t-13 -30.5q11 6 25 6q32 0 50 -15.5t18 -41.5q0 -30 -21 -47.5t-54 -17.5zM408 440h130v-410q0 -121 -70 -192.5t-189 -71.5q-135 0 -221 67l36 124q71 -57 161 -57q54 0 85 34 t33 90q-49 -38 -127 -38q-97 0 -159 64.5t-62 169.5t62 169.5t159 64.5q105 0 158 -69zM281 121q42 0 67 27.5t25 71.5q0 45 -25 72.5t-67 27.5q-41 0 -66 -27.5t-25 -72.5q0 -44 25 -71.5t66 -27.5z" glyph-name="gcommaaccent" horiz-adv-x="588" unicode="ģ"/><glyph d="M346 803v-78h-275v78h275zM295 135h93v-135h-359v135h92v370h-82v135h339v-135h-83v-370z" glyph-name="Imacron" horiz-adv-x="417" unicode="Ī"/><glyph d="M-5 525v78h275v-78h-275zM50 0v440h165v-440h-165z" glyph-name="imacron" horiz-adv-x="265" unicode="ī"/><glyph d="M388 0q-87 -50 -87 -93q0 -28 49 -28h23l-6 -67h-35q-102 0 -102 74q0 60 80 114h-281v135h92v370h-82v135h339v-135h-83v-370h93v-135z" glyph-name="Iogonek" horiz-adv-x="417" unicode="Į"/><glyph d="M133 504q-29 0 -48 17t-19 44t19 44.5t48 17.5q30 0 48.5 -17.5t18.5 -44.5t-18.5 -44t-48.5 -17zM50 440h165v-440h-1q-87 -50 -87 -93q0 -28 49 -28h23l-6 -67h-35q-102 0 -102 74q0 60 80 114h-86v440z" glyph-name="iogonek" horiz-adv-x="265" unicode="į"/><glyph d="M209 704q-29 0 -48 17t-19 44t19 44.5t48 17.5q30 0 48.5 -17.5t18.5 -44.5t-18.5 -44t-48.5 -17zM295 135h93v-135h-359v135h92v370h-82v135h339v-135h-83v-370z" glyph-name="Idotaccent" horiz-adv-x="417" unicode="İ"/><glyph d="M50 0v440h165v-440h-165z" glyph-name="dotlessi" horiz-adv-x="265" unicode="ı"/><glyph d="M395 352l256 -352h-210l-156 220l-52 -63v-157h-175v640h175v-230l177 230h223zM328 -42q31 0 53 -20t22 -60q0 -49 -28 -89.5t-70 -49.5l-17 45q30 11 44.5 27.5t12.5 29.5q-12 -6 -25 -6q-31 0 -49 16t-18 42q0 29 21 47t54 18z" glyph-name="Kcommaaccent" horiz-adv-x="657" unicode="Ķ"/><glyph d="M370 257l197 -257h-193l-108 149l-51 -53v-96h-165v740h165v-445l130 145h202zM290 -42q31 0 53 -20t22 -60q0 -49 -28 -89.5t-70 -49.5l-17 45q30 11 44.5 27.5t12.5 29.5q-12 -6 -25 -6q-31 0 -49 16t-18 42q0 29 21 47t54 18z" glyph-name="kcommaaccent" horiz-adv-x="572" unicode="ķ"/><glyph d="M372 835l-100 -120h-95l67 120h128zM233 144h244v-144h-419v640h175v-496z" glyph-name="Lacute" horiz-adv-x="500" unicode="Ĺ"/><glyph d="M168 815h-95l67 120h128zM222 0q-90 0 -131 45.5t-41 146.5v548h165v-545q0 -37 9 -53t30 -16h21l-11 -126h-42z" glyph-name="lacute" horiz-adv-x="285" unicode="ĺ"/><glyph d="M233 144h244v-144h-419v640h175v-496zM251 -42q31 0 53 -20t22 -60q0 -49 -28 -89.5t-70 -49.5l-17 45q30 11 44.5 27.5t12.5 29.5q-12 -6 -25 -6q-31 0 -49 16t-18 42q0 29 21 47t54 18z" glyph-name="Lcommaaccent" horiz-adv-x="500" unicode="Ļ"/><glyph d="M222 0q-90 0 -131 45.5t-41 146.5v548h165v-545q0 -37 9 -53t30 -16h21l-11 -126h-42zM123 -261l-17 45q30 11 44.5 27.5t12.5 29.5q-12 -6 -25 -6q-31 0 -49 16t-18 42q0 29 21 47t54 18q31 0 53 -20t22 -60q0 -49 -28 -89.5t-70 -49.5z" glyph-name="lcommaaccent" horiz-adv-x="285" unicode="ļ"/><glyph d="M233 144h244v-144h-419v640h175v-496zM451 635l-56 -145h-91l33 145h114z" glyph-name="Lcaron" horiz-adv-x="500" unicode="Ľ"/><glyph d="M222 0q-90 0 -131 45.5t-41 146.5v548h165v-545q0 -37 9 -53t30 -16h21l-11 -126h-42zM390 635l-56 -145h-91l33 145h114z" glyph-name="lcaron" horiz-adv-x="285" unicode="ľ"/><glyph d="M233 144h244v-144h-419v209l-54 -25v112l54 25v319h175v-239l121 55v-112l-121 -55v-145z" glyph-name="Lslash" horiz-adv-x="500" unicode="Ł"/><glyph d="M317 394l-102 -47v-152q0 -37 9 -53t30 -16h21l-11 -126h-42q-90 0 -131 45.5t-41 146.5v80l-83 -38v112l83 38v356h165v-281l102 47v-112z" glyph-name="lslash" horiz-adv-x="285" unicode="ł"/><glyph d="M373 715h-95l67 120h128zM58 0v640h95l309 -330v330h175v-640h-95l-309 331v-331h-175z" glyph-name="Nacute" horiz-adv-x="695" unicode="Ń"/><glyph d="M412 635l-100 -120h-95l67 120h128zM314 454q98 0 153 -58t55 -160v-236h-164v236q0 39 -17.5 61.5t-47.5 22.5q-36 0 -57 -22.5t-21 -61.5v-236h-165v440h130l3 -52q46 66 131 66z" glyph-name="nacute" horiz-adv-x="572" unicode="ń"/><glyph d="M58 0v640h95l309 -330v330h175v-640h-95l-309 331v-331h-175zM328 -261l-17 45q30 11 44.5 27.5t12.5 29.5q-12 -6 -25 -6q-31 0 -49 16t-18 42q0 29 21 47t54 18q31 0 53 -20t22 -60q0 -49 -28 -89.5t-70 -49.5z" glyph-name="Ncommaaccent" horiz-adv-x="695" unicode="Ņ"/><glyph d="M314 454q98 0 153 -58t55 -160v-236h-164v236q0 39 -17.5 61.5t-47.5 22.5q-36 0 -57 -22.5t-21 -61.5v-236h-165v440h130l3 -52q46 66 131 66zM290 -42q31 0 53 -20t22 -60q0 -49 -28 -89.5t-70 -49.5l-17 45q30 11 44.5 27.5t12.5 29.5q-12 -6 -25 -6q-31 0 -49 16 t-18 42q0 29 21 47t54 18z" glyph-name="ncommaaccent" horiz-adv-x="572" unicode="ņ"/><glyph d="M492 835l-86 -120h-97l-85 120h84l50 -53l49 53h85zM58 0v640h95l309 -330v330h175v-640h-95l-309 331v-331h-175z" glyph-name="Ncaron" horiz-adv-x="695" unicode="Ň"/><glyph d="M345 515h-97l-85 120h84l50 -53l49 53h85zM314 454q98 0 153 -58t55 -160v-236h-164v236q0 39 -17.5 61.5t-47.5 22.5q-36 0 -57 -22.5t-21 -61.5v-236h-165v440h130l3 -52q46 66 131 66z" glyph-name="ncaron" horiz-adv-x="572" unicode="ň"/><glyph d="M462 640h175v-670q0 -89 -49.5 -139.5t-136.5 -50.5l-19 93q40 0 40 97v105l-239 256v-331h-175v640h95l309 -330v330z" glyph-name="Eng" horiz-adv-x="695" unicode="Ŋ"/><glyph d="M522 0h1v-30q0 -89 -49.5 -139.5t-136.5 -50.5l-19 93q40 0 40 97v266q0 39 -17.5 61.5t-47.5 22.5q-36 0 -57 -22.5t-21 -61.5v-236h-165v440h130l3 -52q46 66 131 66q98 0 153 -58t55 -160v-236z" glyph-name="eng" horiz-adv-x="572" unicode="ŋ"/><glyph d="M246 725v78h275v-78h-275zM384 -14q-156 0 -255.5 94t-99.5 240t99.5 240t255.5 94q155 0 254.5 -94t99.5 -240t-99.5 -240t-254.5 -94zM384 141q79 0 129.5 50.5t50.5 128.5t-50.5 128t-129.5 50t-130 -50t-51 -128t51 -128.5t130 -50.5z" glyph-name="Omacron" horiz-adv-x="767" unicode="Ō"/><glyph d="M145 525v78h275v-78h-275zM282 -14q-116 0 -186.5 64t-70.5 170t70.5 170t186.5 64t186.5 -64t70.5 -170t-70.5 -170t-186.5 -64zM282 121q41 0 67 27.5t26 71.5q0 45 -26 72.5t-67 27.5t-66.5 -27.5t-25.5 -72.5q0 -44 25.5 -71.5t66.5 -27.5z" glyph-name="omacron" horiz-adv-x="564" unicode="ō"/><glyph d="M306 715h-95l67 120h128zM476 715h-95l67 120h128zM384 -14q-156 0 -255.5 94t-99.5 240t99.5 240t255.5 94q155 0 254.5 -94t99.5 -240t-99.5 -240t-254.5 -94zM384 141q79 0 129.5 50.5t50.5 128.5t-50.5 128t-129.5 50t-130 -50t-51 -128t51 -128.5t130 -50.5z" glyph-name="Ohungarumlaut" horiz-adv-x="767" unicode="Ő"/><glyph d="M205 515h-95l67 120h128zM375 515h-95l67 120h128zM282 -14q-116 0 -186.5 64t-70.5 170t70.5 170t186.5 64t186.5 -64t70.5 -170t-70.5 -170t-186.5 -64zM282 121q41 0 67 27.5t26 71.5q0 45 -26 72.5t-67 27.5t-66.5 -27.5t-25.5 -72.5q0 -44 25.5 -71.5t66.5 -27.5z " glyph-name="ohungarumlaut" horiz-adv-x="564" unicode="ő"/><glyph d="M1011 496h-269v-103h258v-134h-258v-115h269v-144h-434v68q-87 -82 -218 -82q-145 0 -237.5 94t-92.5 240t92.5 240t237.5 94q131 0 218 -82v68h434v-144zM384 141q79 0 129.5 50.5t50.5 128.5t-50.5 128t-129.5 50t-130 -50t-51 -128t51 -128.5t130 -50.5z" glyph-name="OE" horiz-adv-x="1034" unicode="Œ"/><glyph d="M877 244q0 -30 -13 -72h-317q29 -58 106 -58q84 0 151 27l30 -106q-81 -45 -178 -45q-116 0 -190 58q-68 -62 -184 -62t-186.5 64t-70.5 170t70.5 170t186.5 64q112 0 180 -59q71 59 188 59q105 0 166 -57.5t61 -152.5zM647 330q-79 0 -104 -64h189q-5 31 -28 47.5 t-57 16.5zM282 121q41 0 67 27.5t26 71.5q0 45 -26 72.5t-67 27.5t-66.5 -27.5t-25.5 -72.5q0 -44 25.5 -71.5t66.5 -27.5z" glyph-name="oe" horiz-adv-x="902" unicode="œ"/><glyph d="M440 835l-100 -120h-95l67 120h128zM621 0h-195l-123 185h-14h-56v-185h-175v640h231q139 0 218.5 -60.5t79.5 -166.5q0 -132 -118 -191zM233 493v-160h56q58 0 91 21.5t33 58.5t-33 58.5t-91 21.5h-56z" glyph-name="Racute" horiz-adv-x="627" unicode="Ŕ"/><glyph d="M317 635l-100 -120h-95l67 120h128zM318 454q26 0 56 -9l-42 -132q-18 7 -35 7q-38 0 -60 -31t-22 -83v-206h-165v440h140l4 -60q44 74 124 74z" glyph-name="racute" horiz-adv-x="384" unicode="ŕ"/><glyph d="M469 222l152 -222h-195l-123 185h-14h-56v-185h-175v640h231q139 0 218.5 -60.5t79.5 -166.5q0 -132 -118 -191zM233 493v-160h56q58 0 91 21.5t33 58.5t-33 58.5t-91 21.5h-56zM318 -42q31 0 53 -20t22 -60q0 -49 -28 -89.5t-70 -49.5l-17 45q30 11 44.5 27.5t12.5 29.5 q-12 -6 -25 -6q-31 0 -49 16t-18 42q0 29 21 47t54 18z" glyph-name="Rcommaaccent" horiz-adv-x="627" unicode="Ŗ"/><glyph d="M318 454q26 0 56 -9l-42 -132q-18 7 -35 7q-38 0 -60 -31t-22 -83v-206h-165v440h140l4 -60q44 74 124 74zM196 -42q31 0 53 -20t22 -60q0 -49 -28 -89.5t-70 -49.5l-17 45q30 11 44.5 27.5t12.5 29.5q-12 -6 -25 -6q-31 0 -49 16t-18 42q0 29 21 47t54 18z" glyph-name="rcommaaccent" horiz-adv-x="384" unicode="ŗ"/><glyph d="M373 715h-97l-85 120h84l50 -53l49 53h85zM621 0h-195l-123 185h-14h-56v-185h-175v640h231q139 0 218.5 -60.5t79.5 -166.5q0 -132 -118 -191zM233 493v-160h56q58 0 91 21.5t33 58.5t-33 58.5t-91 21.5h-56z" glyph-name="Rcaron" horiz-adv-x="627" unicode="Ř"/><glyph d="M250 515h-97l-85 120h84l50 -53l49 53h85zM318 454q26 0 56 -9l-42 -132q-18 7 -35 7q-38 0 -60 -31t-22 -83v-206h-165v440h140l4 -60q44 74 124 74z" glyph-name="rcaron" horiz-adv-x="384" unicode="ř"/><glyph d="M317 715h-95l67 120h128zM283 -14q-145 0 -260 81l38 135q112 -61 218 -61q49 0 85.5 14.5t36.5 40.5q0 23 -25.5 38t-64.5 21.5t-83.5 20t-83.5 31.5t-64.5 57.5t-25.5 96.5q0 90 66.5 141.5t173.5 51.5q117 0 233 -70l-37 -130q-105 51 -186 51q-38 0 -64.5 -12.5 t-26.5 -32.5q0 -16 19 -26t49.5 -17t67.5 -14t74 -21t67.5 -34t49.5 -57t19 -87q0 -100 -76.5 -159t-199.5 -59z" glyph-name="Sacute" horiz-adv-x="582" unicode="Ś"/><glyph d="M257 515h-95l67 120h128zM231 -14q-131 0 -211 61l35 115q77 -51 155 -55q33 -2 58.5 5t25.5 20q0 12 -26 20.5t-63 18t-74.5 24.5t-63.5 45.5t-26 74.5q0 63 53.5 101t140.5 38q103 0 185 -44l-31 -107q-73 35 -130 35q-29 1 -49 -4.5t-20 -15.5q0 -11 26 -18 t63.5 -15.5t75 -23t63.5 -46.5t26 -79q0 -77 -60 -113.5t-153 -36.5z" glyph-name="sacute" horiz-adv-x="464" unicode="ś"/><glyph d="M559 204q0 -88 -60 -144.5t-159 -69.5l-14 -43l15 -1q34 -3 53.5 -20t19.5 -46q0 -36 -26.5 -56.5t-73.5 -20.5h-96l-8 64h104q28 0 28 13q0 14 -28 14h-73l-5 9l31 83q-138 6 -244 81l38 135q112 -61 218 -61q49 0 85.5 14.5t36.5 40.5q0 23 -25.5 38t-64.5 21.5 t-83.5 20t-83.5 31.5t-64.5 57.5t-25.5 96.5q0 90 66.5 141.5t173.5 51.5q117 0 233 -70l-37 -130q-105 51 -186 51q-38 0 -64.5 -12.5t-26.5 -32.5q0 -16 19 -26t49.5 -17t67.5 -14t74 -21t67.5 -34t49.5 -57t19 -87z" glyph-name="Scedilla" horiz-adv-x="582" unicode="Ş"/><glyph d="M444 136q0 -66 -45.5 -102.5t-119.5 -44.5l-13 -42l15 -1q34 -3 53.5 -20t19.5 -46q0 -36 -26.5 -56.5t-73.5 -20.5h-96l-8 64h104q28 0 28 13q0 14 -28 14h-73l-5 9l31 84q-112 4 -187 60l35 115q77 -51 155 -55q33 -2 58.5 5t25.5 20q0 12 -26 20.5t-63 18t-74.5 24.5 t-63.5 45.5t-26 74.5q0 63 53.5 101t140.5 38q103 0 185 -44l-31 -107q-73 35 -130 35q-29 1 -49 -4.5t-20 -15.5q0 -11 26 -18t63.5 -15.5t75 -23t63.5 -46.5t26 -79z" glyph-name="scedilla" horiz-adv-x="464" unicode="ş"/><glyph d="M436 835l-86 -120h-97l-85 120h84l50 -53l49 53h85zM283 -14q-145 0 -260 81l38 135q112 -61 218 -61q49 0 85.5 14.5t36.5 40.5q0 23 -25.5 38t-64.5 21.5t-83.5 20t-83.5 31.5t-64.5 57.5t-25.5 96.5q0 90 66.5 141.5t173.5 51.5q117 0 233 -70l-37 -130 q-105 51 -186 51q-38 0 -64.5 -12.5t-26.5 -32.5q0 -16 19 -26t49.5 -17t67.5 -14t74 -21t67.5 -34t49.5 -57t19 -87q0 -100 -76.5 -159t-199.5 -59z" glyph-name="Scaron" horiz-adv-x="582" unicode="Š"/><glyph d="M376 635l-86 -120h-97l-85 120h84l50 -53l49 53h85zM231 -14q-131 0 -211 61l35 115q77 -51 155 -55q33 -2 58.5 5t25.5 20q0 12 -26 20.5t-63 18t-74.5 24.5t-63.5 45.5t-26 74.5q0 63 53.5 101t140.5 38q103 0 185 -44l-31 -107q-73 35 -130 35q-29 1 -49 -4.5 t-20 -15.5q0 -11 26 -18t63.5 -15.5t75 -23t63.5 -46.5t26 -79q0 -77 -60 -113.5t-153 -36.5z" glyph-name="scaron" horiz-adv-x="464" unicode="š"/><glyph d="M358 0h-37l-17 -53l15 -1q34 -3 53.5 -20t19.5 -46q0 -36 -26.5 -56.5t-73.5 -20.5h-96l-8 64h104q28 0 28 13q0 14 -28 14h-73l-5 9l36 97h-66v496h-161v144h493v-144h-158v-496z" glyph-name="Tcommaaccent" horiz-adv-x="539" unicode="Ţ"/><glyph d="M268 -54q34 -3 53.5 -20t19.5 -46q0 -36 -26.5 -56.5t-73.5 -20.5h-96l-8 64h104q28 0 28 13q0 14 -28 14h-73l-5 9l34 90q-60 17 -94.5 66t-34.5 121v133h-58v127h72l6 154h144v-154h121v-127h-121v-133q0 -30 14 -48t36 -18q26 0 67 19l32 -102q-57 -40 -115 -45 l-13 -39z" glyph-name="tcommaaccent" horiz-adv-x="391" unicode="ţ"/><glyph d="M328 715h-97l-85 120h84l50 -53l49 53h85zM516 640v-144h-158v-496h-174v496h-161v144h493z" glyph-name="Tcaron" horiz-adv-x="539" unicode="Ť"/><glyph d="M425 635l-56 -145h-91l33 145h114zM282 114q26 0 67 19l32 -102q-63 -45 -127 -45q-85 0 -135.5 53t-50.5 141v133h-58v127h72l6 154h144v-154h121v-127h-121v-133q0 -30 14 -48t36 -18z" glyph-name="tcaron" horiz-adv-x="391" unicode="ť"/><glyph d="M516 496h-158v-119h65v-114h-65v-263h-174v263h-67v114h67v119h-161v144h493v-144z" glyph-name="Tbar" horiz-adv-x="539" unicode="Ŧ"/><glyph d="M349 133l32 -102q-63 -45 -127 -45q-82 0 -132 50t-54 133h-51v93h51v51h-58v127h72l6 154h144v-154h121v-127h-121v-51h102v-93h-101q2 -25 15.5 -40t33.5 -15q26 0 67 19z" glyph-name="tbar" horiz-adv-x="391" unicode="ŧ"/><glyph d="M191 725v78h275v-78h-275zM328 -14q-131 0 -206.5 82t-75.5 220v352h175v-352q0 -147 107 -147q109 0 109 147v352h174v-352q0 -138 -76 -220t-207 -82z" glyph-name="Umacron" horiz-adv-x="657" unicode="Ū"/><glyph d="M142 525v78h275v-78h-275zM280 -14q-105 0 -167.5 58t-62.5 155v241h165v-241q0 -36 17.5 -57t47.5 -21t47.5 21.5t17.5 56.5v241h164v-241q0 -97 -62 -155t-167 -58z" glyph-name="umacron" horiz-adv-x="559" unicode="ū"/><glyph d="M329 693q-41 0 -66 22t-25 57q0 36 24.5 58t66.5 22t66.5 -22t24.5 -58q0 -35 -25 -57t-66 -22zM329 742q15 0 25 8.5t10 21.5t-10 22t-25 9t-25 -9t-10 -22t10 -21.5t25 -8.5zM328 -14q-131 0 -206.5 82t-75.5 220v352h175v-352q0 -147 107 -147q109 0 109 147v352h174 v-352q0 -138 -76 -220t-207 -82z" glyph-name="Uring" horiz-adv-x="657" unicode="Ů"/><glyph d="M280 493q-41 0 -66 22t-25 57q0 36 24.5 58t66.5 22t66.5 -22t24.5 -58q0 -35 -25 -57t-66 -22zM280 542q15 0 25 8.5t10 21.5t-10 22t-25 9t-25 -9t-10 -22t10 -21.5t25 -8.5zM280 -14q-105 0 -167.5 58t-62.5 155v241h165v-241q0 -36 17.5 -57t47.5 -21t47.5 21.5 t17.5 56.5v241h164v-241q0 -97 -62 -155t-167 -58z" glyph-name="uring" horiz-adv-x="559" unicode="ů"/><glyph d="M251 715h-95l67 120h128zM421 715h-95l67 120h128zM328 -14q-131 0 -206.5 82t-75.5 220v352h175v-352q0 -147 107 -147q109 0 109 147v352h174v-352q0 -138 -76 -220t-207 -82z" glyph-name="Uhungarumlaut" horiz-adv-x="657" unicode="Ű"/><glyph d="M202 515h-95l67 120h128zM372 515h-95l67 120h128zM280 -14q-105 0 -167.5 58t-62.5 155v241h165v-241q0 -36 17.5 -57t47.5 -21t47.5 21.5t17.5 56.5v241h164v-241q0 -97 -62 -155t-167 -58z" glyph-name="uhungarumlaut" horiz-adv-x="559" unicode="ű"/><glyph d="M437 640h174v-352q0 -122 -60.5 -201.5t-167.5 -96.5q-72 -45 -72 -84q0 -28 49 -28h23l-6 -67h-35q-102 0 -102 74q0 53 63 102q-120 8 -188.5 89t-68.5 212v352h175v-352q0 -147 107 -147q109 0 109 147v352z" glyph-name="Uogonek" horiz-adv-x="657" unicode="Ų"/><glyph d="M345 440h164v-241q0 -83 -46.5 -138.5t-128.5 -69.5q-71 -45 -71 -84q0 -28 49 -28h23l-6 -67h-35q-102 0 -102 74q0 54 62 101q-95 8 -149.5 64.5t-54.5 147.5v241h165v-241q0 -36 17.5 -57t47.5 -21t47.5 21.5t17.5 56.5v241z" glyph-name="uogonek" horiz-adv-x="559" unicode="ų"/><glyph d="M348 715l86 120h97l85 -120h-84l-50 54l-49 -54h-85zM223 0l-217 640h187l110 -344l135 344h89l134 -344l110 344h187l-216 -640h-127l-133 339l-132 -339h-127z" glyph-name="Wcircumflex" horiz-adv-x="964" unicode="Ŵ"/><glyph d="M234 515l86 120h97l85 -120h-84l-50 54l-49 -54h-85zM167 0l-162 440h179l63 -225l88 225h65l88 -225l63 225h179l-162 -440h-125l-75 188l-76 -188h-125z" glyph-name="wcircumflex" horiz-adv-x="735" unicode="ŵ"/><glyph d="M322 769l-49 -54h-85l86 120h97l85 -120h-84zM637 640l-228 -416v-224h-174v222l-229 418h192l124 -270l123 270h192z" glyph-name="Ycircumflex" horiz-adv-x="643" unicode="Ŷ"/><glyph d="M290 569l-49 -54h-85l86 120h97l85 -120h-84zM365 440h165v-410q0 -121 -69 -192.5t-185 -71.5q-132 0 -216 67l36 124q68 -57 156 -57q54 0 83.5 36t29.5 94v3q-45 -47 -112 -47q-92 0 -147.5 58t-55.5 155v241h165v-241q0 -35 18.5 -56.5t48.5 -21.5q38 0 60.5 21.5 t22.5 56.5v241z" glyph-name="ycircumflex" horiz-adv-x="580" unicode="ŷ"/><glyph d="M241 713q-25 0 -41 15t-16 37q0 23 16 38t41 15t40.5 -15t15.5 -38q0 -22 -16 -37t-40 -15zM403 713q-24 0 -40 15t-16 37q0 23 15.5 38t40.5 15t40.5 -15t15.5 -38q0 -22 -16 -37t-40 -15zM637 640l-228 -416v-224h-174v222l-229 418h192l124 -270l123 270h192z" glyph-name="Ydieresis" horiz-adv-x="643" unicode="Ÿ"/><glyph d="M307 715h-95l67 120h128zM23 0v83l269 413h-258v144h496v-82l-269 -414h279v-144h-517z" glyph-name="Zacute" horiz-adv-x="563" unicode="Ź"/><glyph d="M225 515h-95l67 120h128zM10 0v77l167 236h-156v127h357v-77l-167 -236h178v-127h-379z" glyph-name="zacute" horiz-adv-x="399" unicode="ź"/><glyph d="M282 704q-29 0 -48 17t-19 44t19 44.5t48 17.5q30 0 48.5 -17.5t18.5 -44.5t-18.5 -44t-48.5 -17zM23 0v83l269 413h-258v144h496v-82l-269 -414h279v-144h-517z" glyph-name="Zdotaccent" horiz-adv-x="563" unicode="Ż"/><glyph d="M200 504q-29 0 -48 17t-19 44t19 44.5t48 17.5q30 0 48.5 -17.5t18.5 -44.5t-18.5 -44t-48.5 -17zM10 0v77l167 236h-156v127h357v-77l-167 -236h178v-127h-379z" glyph-name="zdotaccent" horiz-adv-x="399" unicode="ż"/><glyph d="M426 835l-86 -120h-97l-85 120h84l50 -53l49 53h85zM23 0v83l269 413h-258v144h496v-82l-269 -414h279v-144h-517z" glyph-name="Zcaron" horiz-adv-x="563" unicode="Ž"/><glyph d="M344 635l-86 -120h-97l-85 120h84l50 -53l49 53h85zM10 0v77l167 236h-156v127h357v-77l-167 -236h178v-127h-379z" glyph-name="zcaron" horiz-adv-x="399" unicode="ž"/><glyph d="M-7 -234l-12 126h21q39 0 39 69v479h164v-482q0 -101 -41 -146.5t-131 -45.5h-40z" glyph-name="uni0237" horiz-adv-x="255" unicode="ȷ"/><glyph d="M58 515l86 120h97l85 -120h-84l-50 54l-49 -54h-85z" glyph-name="circumflex" horiz-adv-x="404" unicode="ˆ"/><glyph d="M125 504q-29 0 -48 17t-19 44t19 44.5t48 17.5q30 0 48.5 -17.5t18.5 -44.5t-18.5 -44t-48.5 -17z" glyph-name="dotaccent" horiz-adv-x="270" unicode="˙"/><glyph d="M149 493q-41 0 -66 22t-25 57q0 36 24.5 58t66.5 22t66.5 -22t24.5 -58q0 -35 -25 -57t-66 -22zM149 542q15 0 25 8.5t10 21.5t-10 22t-25 9t-25 -9t-10 -22t10 -21.5t25 -8.5z" glyph-name="ring" horiz-adv-x="318" unicode="˚"/><glyph d="M241 505q-22 0 -38 8t-22.5 18t-14 18t-15.5 8q-25 0 -25 -44h-68q0 54 25 86.5t69 32.5q28 0 45 -13t26 -25.5t18 -12.5q25 0 25 44h69q0 -55 -25.5 -87.5t-68.5 -32.5z" glyph-name="tilde" horiz-adv-x="413" unicode="˜"/><glyph d="M-153 515l-100 120h128l67 -120h-95z" glyph-name="gravecomb" horiz-adv-x="0" unicode="̀"/><glyph d="M-158 515h-95l67 120h128z" glyph-name="acutecomb" horiz-adv-x="0" unicode="́"/><glyph d="M-326 515l86 120h97l85 -120h-84l-50 54l-49 -54h-85z" glyph-name="uni0302" horiz-adv-x="0" unicode="̂"/><glyph d="M-152 505q-22 0 -38 8t-22.5 18t-14 18t-15.5 8q-25 0 -25 -44h-68q0 54 25 86.5t69 32.5q28 0 45 -13t26 -25.5t18 -12.5q25 0 25 44h69q0 -55 -25.5 -87.5t-68.5 -32.5z" glyph-name="tildecomb" horiz-adv-x="0" unicode="̃"/><glyph d="M-333 525v78h275v-78h-275z" glyph-name="uni0304" horiz-adv-x="0" unicode="̄"/><glyph d="M-58 635q0 -55 -31.5 -86.5t-85.5 -31.5q-55 0 -86.5 31.5t-31.5 86.5h70q0 -22 13 -34.5t35 -12.5t35 12.5t13 34.5h69z" glyph-name="uni0306" horiz-adv-x="0" unicode="̆"/><glyph d="M-125 504q-29 0 -48 17t-19 44t19 44.5t48 17.5q30 0 48.5 -17.5t18.5 -44.5t-18.5 -44t-48.5 -17z" glyph-name="uni0307" horiz-adv-x="0" unicode="̇"/><glyph d="M-276 513q-25 0 -41 15t-16 37q0 23 16 38t41 15t40.5 -15t15.5 -38q0 -22 -16 -37t-40 -15zM-114 513q-24 0 -40 15t-16 37q0 23 15.5 38t40.5 15t40.5 -15t15.5 -38q0 -22 -16 -37t-40 -15z" glyph-name="uni0308" horiz-adv-x="0" unicode="̈"/><glyph d="M-149 493q-41 0 -66 22t-25 57q0 36 24.5 58t66.5 22t66.5 -22t24.5 -58q0 -35 -25 -57t-66 -22zM-149 542q15 0 25 8.5t10 21.5t-10 22t-25 9t-25 -9t-10 -22t10 -21.5t25 -8.5z" glyph-name="uni030A" horiz-adv-x="0" unicode="̊"/><glyph d="M-328 515h-95l67 120h128zM-158 515h-95l67 120h128z" glyph-name="uni030B" horiz-adv-x="0" unicode="̋"/><glyph d="M-58 635l-86 -120h-97l-85 120h84l50 -53l49 53h85z" glyph-name="uni030C" horiz-adv-x="0" unicode="̌"/><glyph d="M-110 719l16 -44q-30 -11 -44 -27.5t-13 -30.5q11 6 25 6q32 0 50 -15.5t18 -41.5q0 -30 -21 -47.5t-54 -17.5q-32 0 -53.5 19.5t-21.5 59.5q0 49 27.5 89.5t70.5 49.5z" glyph-name="uni0312" horiz-adv-x="0" unicode="̒"/><glyph d="M-156 -261l-17 45q30 11 44.5 27.5t12.5 29.5q-12 -6 -25 -6q-31 0 -49 16t-18 42q0 29 21 47t54 18q31 0 53 -20t22 -60q0 -49 -28 -89.5t-70 -49.5z" glyph-name="uni0326" horiz-adv-x="0" unicode="̦"/><glyph d="M-254 -197l-8 64h104q28 0 28 13q0 14 -28 14h-73l-5 9l36 97h71l-17 -53l15 -1q34 -3 53.5 -20t19.5 -46q0 -36 -26.5 -56.5t-73.5 -20.5h-96z" glyph-name="uni0327" horiz-adv-x="0" unicode="̧"/><glyph d="M-79 -188h-35q-102 0 -102 74q0 67 96 124l62 -10q-87 -50 -87 -93q0 -28 49 -28h23z" glyph-name="uni0328" horiz-adv-x="0" unicode="̨"/><glyph d="M-364 179v114h306v-114h-306z" glyph-name="uni0335" horiz-adv-x="0" unicode="̵"/><glyph d="M-612 0l440 440h114l-440 -440h-114z" glyph-name="uni0337" horiz-adv-x="0" unicode="̷"/><glyph d="M-823 0l610 640h155l-610 -640h-155z" glyph-name="uni0338" horiz-adv-x="0" unicode="̸"/><glyph d="M485 715l-100 120h128l67 -120h-95zM223 0l-217 640h187l110 -344l135 344h89l134 -344l110 344h187l-216 -640h-127l-133 339l-132 -339h-127z" glyph-name="Wgrave" horiz-adv-x="964" unicode="Ẁ"/><glyph d="M370 515l-100 120h128l67 -120h-95zM167 0l-162 440h179l63 -225l88 225h65l88 -225l63 225h179l-162 -440h-125l-75 188l-76 -188h-125z" glyph-name="wgrave" horiz-adv-x="735" unicode="ẁ"/><glyph d="M507 715h-95l67 120h128zM223 0l-217 640h187l110 -344l135 344h89l134 -344l110 344h187l-216 -640h-127l-133 339l-132 -339h-127z" glyph-name="Wacute" horiz-adv-x="964" unicode="Ẃ"/><glyph d="M393 515h-95l67 120h128zM167 0l-162 440h179l63 -225l88 225h65l88 -225l63 225h179l-162 -440h-125l-75 188l-76 -188h-125z" glyph-name="wacute" horiz-adv-x="735" unicode="ẃ"/><glyph d="M402 713q-25 0 -41 15t-16 37q0 23 16 38t41 15t40.5 -15t15.5 -38q0 -22 -16 -37t-40 -15zM564 713q-24 0 -40 15t-16 37q0 23 15.5 38t40.5 15t40.5 -15t15.5 -38q0 -22 -16 -37t-40 -15zM223 0l-217 640h187l110 -344l135 344h89l134 -344l110 344h187l-216 -640h-127 l-133 339l-132 -339h-127z" glyph-name="Wdieresis" horiz-adv-x="964" unicode="Ẅ"/><glyph d="M287 513q-25 0 -41 15t-16 37q0 23 16 38t41 15t40.5 -15t15.5 -38q0 -22 -16 -37t-40 -15zM449 513q-24 0 -40 15t-16 37q0 23 15.5 38t40.5 15t40.5 -15t15.5 -38q0 -22 -16 -37t-40 -15zM167 0l-162 440h179l63 -225l88 225h65l88 -225l63 225h179l-162 -440h-125 l-75 188l-76 -188h-125z" glyph-name="wdieresis" horiz-adv-x="735" unicode="ẅ"/><glyph d="M494 -14q-114 0 -219 81l37 130q86 -63 158 -63q100 0 100 67q0 48 -62.5 76t-183.5 32l1 41l79 151h-171v-501h-175v640h572v-45l-116 -187q114 -14 172.5 -67.5t58.5 -140.5q0 -103 -65.5 -158.5t-185.5 -55.5z" glyph-name="uni1E9E" horiz-adv-x="770" unicode="ẞ"/><glyph d="M419 715h-95l-100 120h128zM637 640l-228 -416v-224h-174v222l-229 418h192l124 -270l123 270h192z" glyph-name="Ygrave" horiz-adv-x="643" unicode="Ỳ"/><glyph d="M388 515h-95l-100 120h128zM365 440h165v-410q0 -121 -69 -192.5t-185 -71.5q-132 0 -216 67l36 124q68 -57 156 -57q54 0 83.5 36t29.5 94v3q-45 -47 -112 -47q-92 0 -147.5 58t-55.5 155v241h165v-241q0 -35 18.5 -56.5t48.5 -21.5q38 0 60.5 21.5t22.5 56.5v241z" glyph-name="ygrave" horiz-adv-x="580" unicode="ỳ"/><glyph glyph-name="uni2000" horiz-adv-x="500" unicode=" "/><glyph glyph-name="uni2001" horiz-adv-x="1000" unicode=" "/><glyph glyph-name="uni2002" horiz-adv-x="500" unicode=" "/><glyph glyph-name="uni2003" horiz-adv-x="1000" unicode=" "/><glyph glyph-name="uni2004" horiz-adv-x="333" unicode=" "/><glyph glyph-name="uni2005" horiz-adv-x="250" unicode=" "/><glyph glyph-name="uni2006" horiz-adv-x="167" unicode=" "/><glyph glyph-name="uni2007" unicode=" "/><glyph glyph-name="uni2008" horiz-adv-x="303" unicode=" "/><glyph glyph-name="uni2009" horiz-adv-x="200" unicode=" "/><glyph glyph-name="uni200A" horiz-adv-x="143" unicode=" "/><glyph glyph-name="uni200B" horiz-adv-x="0" unicode="​"/><glyph glyph-name="afii61664" horiz-adv-x="0" unicode="‌"/><glyph glyph-name="afii301" horiz-adv-x="0" unicode="‍"/><glyph d="M35 220v144h558v-144h-558z" glyph-name="endash" unicode="–"/><glyph d="M40 164v144h920v-144h-920z" glyph-name="emdash" horiz-adv-x="1000" unicode="—"/><glyph d="M161 727l24 -62q-41 -15 -61.5 -38t-18.5 -41q16 8 35 8q44 0 69 -21.5t25 -58.5q0 -41 -29 -65.5t-75 -24.5q-45 0 -75 27.5t-30 82.5q0 68 39 124t97 69z" glyph-name="quoteleft" horiz-adv-x="259" unicode="‘"/><glyph d="M98 413l-24 62q41 15 61.5 38.5t18.5 41.5q-16 -8 -35 -8q-44 0 -69 21.5t-25 58.5q0 40 29.5 65t74.5 25t75 -27.5t30 -83.5q0 -68 -39 -124t-97 -69z" glyph-name="quoteright" horiz-adv-x="259" unicode="’"/><glyph d="M98 -147l-24 62q41 15 61.5 38t18.5 41q-16 -8 -35 -8q-44 0 -69 22t-25 59q0 40 29.5 65t74.5 25t75 -27.5t30 -83.5q0 -68 -39 -124t-97 -69z" glyph-name="quotesinglbase" horiz-adv-x="259" unicode="‚"/><glyph d="M171 727l24 -62q-41 -15 -61.5 -38t-18.5 -41q16 8 35 8q44 0 69 -21.5t25 -58.5q0 -41 -29 -65.5t-75 -24.5q-45 0 -75 27.5t-30 82.5q0 68 39 124t97 69zM397 727l23 -62q-41 -15 -61 -38t-18 -41q15 8 34 8q45 0 69.5 -21.5t24.5 -58.5q0 -41 -29 -65.5t-75 -24.5 q-44 0 -74 27.5t-30 82.5q0 68 38.5 124t97.5 69z" glyph-name="quotedblleft" horiz-adv-x="484" unicode="“"/><glyph d="M98 413l-24 62q41 15 61.5 38.5t18.5 41.5q-16 -8 -35 -8q-44 0 -69 21.5t-25 58.5q0 40 29.5 65t74.5 25t75 -27.5t30 -83.5q0 -68 -39 -124t-97 -69zM323 413l-23 62q41 15 61 38t18 42q-15 -8 -34 -8q-45 0 -69.5 21.5t-24.5 58.5q0 40 29 65t75 25q44 0 74 -27.5 t30 -83.5q0 -68 -38.5 -124t-97.5 -69z" glyph-name="quotedblright" horiz-adv-x="484" unicode="”"/><glyph d="M98 -147l-24 62q41 15 61.5 38t18.5 41q-16 -8 -35 -8q-44 0 -69 22t-25 59q0 40 29.5 65t74.5 25t75 -27.5t30 -83.5q0 -68 -39 -124t-97 -69zM323 -147l-24 62q41 15 61.5 38t18.5 41q-16 -8 -35 -8q-44 0 -69 22t-25 59q0 40 29.5 65t74.5 25t75 -27.5t30 -83.5 q0 -68 -39 -124t-97 -69z" glyph-name="quotedblbase" horiz-adv-x="484" unicode="„"/><glyph d="M265 640v-73h-80v-287h-80v287h-80v73h80v100h80v-100h80z" glyph-name="dagger" horiz-adv-x="290" unicode="†"/><glyph d="M270 460v-73h-85v-107h-80v107h-75v73h75v107h-80v73h80v100h80v-100h80v-73h-80v-107h85z" glyph-name="daggerdbl" horiz-adv-x="295" unicode="‡"/><glyph d="M203 130q-64 0 -104.5 38t-40.5 97t40.5 97t104.5 38q65 0 106 -38t41 -97t-41 -97t-106 -38z" glyph-name="bullet" horiz-adv-x="408" unicode="•"/><glyph d="M152 -14q-41 0 -67.5 24t-26.5 62q0 37 26.5 61t67.5 24t67 -23.5t26 -61.5t-26 -62t-67 -24zM442 -14q-41 0 -67.5 24t-26.5 62q0 37 26.5 61t67.5 24t67 -23.5t26 -61.5t-26 -62t-67 -24zM732 -14q-41 0 -67.5 24t-26.5 62q0 37 26.5 61t67.5 24t67 -23.5t26 -61.5 t-26 -62t-67 -24z" glyph-name="ellipsis" horiz-adv-x="883" unicode="…"/><glyph glyph-name="uni202F" horiz-adv-x="192" unicode=" "/><glyph d="M198 323q-76 0 -124.5 46t-48.5 119q0 72 48.5 118.5t124.5 46.5q74 0 122.5 -46.5t48.5 -118.5t-48 -118.5t-123 -46.5zM130 0l450 640h153l-449 -640h-154zM198 432q24 0 39.5 15.5t15.5 40.5t-15.5 40.5t-39.5 15.5q-25 0 -41 -15.5t-16 -40.5t16 -40.5t41 -15.5z M664 -13q-76 0 -124.5 46.5t-48.5 119.5q0 72 48.5 118.5t124.5 46.5q74 0 122.5 -46.5t48.5 -118.5q0 -73 -48.5 -119.5t-122.5 -46.5zM1044 -13q-76 0 -124.5 46.5t-48.5 119.5q0 72 48.5 118.5t124.5 46.5q74 0 122.5 -46.5t48.5 -118.5q0 -73 -48.5 -119.5t-122.5 -46.5 zM664 97q24 0 39.5 15.5t15.5 40.5t-15.5 40.5t-39.5 15.5q-25 0 -41 -15.5t-16 -40.5t16 -40.5t41 -15.5zM1044 97q24 0 39.5 15.5t15.5 40.5t-15.5 40.5t-39.5 15.5q-25 0 -41 -15.5t-16 -40.5t16 -40.5t41 -15.5z" glyph-name="perthousand" horiz-adv-x="1240" unicode="‰"/><glyph d="M156 70l-131 160l131 160h159l-131 -160l131 -160h-159z" glyph-name="guilsinglleft" horiz-adv-x="340" unicode="‹"/><glyph d="M184 390l131 -160l-131 -160h-159l131 160l-131 160h159z" glyph-name="guilsinglright" horiz-adv-x="340" unicode="›"/><glyph d="M-195 -5l469 697l70 -47l-470 -697z" glyph-name="fraction" horiz-adv-x="149" unicode="⁄"/><glyph glyph-name="uni205F" horiz-adv-x="4500" unicode=" "/><glyph d="M213 367q-82 0 -133 56.5t-51 144.5q0 89 51 145t133 56q83 0 133.5 -56t50.5 -145t-50.5 -145t-133.5 -56zM213 473q28 0 44.5 26.5t16.5 68.5q0 43 -16.5 69t-44.5 26t-44 -26.5t-16 -68.5t16 -68.5t44 -26.5z" glyph-name="uni2070" horiz-adv-x="426" unicode="⁰"/><glyph d="M238 376v62h-209v55l186 267h128v-234h38v-88h-38v-62h-105zM158 526h80v120z" glyph-name="uni2074" horiz-adv-x="410" unicode="⁴"/><glyph d="M205 627q72 0 114.5 -34.5t42.5 -89.5q0 -63 -48.5 -99.5t-129.5 -36.5q-88 0 -155 35l26 87q58 -24 114 -24q70 0 70 39q0 41 -81 41q-47 0 -86 -11l-15 23l20 203h245l-9 -87h-145l-5 -51q11 5 42 5z" glyph-name="uni2075" horiz-adv-x="391" unicode="⁵"/><glyph d="M214 633q58 0 94.5 -32.5t36.5 -93.5q0 -64 -42 -102t-110 -38q-78 0 -121 50.5t-43 140.5q0 100 48.5 155.5t128.5 55.5q67 0 119 -33l-23 -79q-39 22 -85 22q-66 0 -83 -74q31 28 80 28zM187 463q19 0 30 13.5t11 35.5t-11 35.5t-30 13.5t-30.5 -14t-11.5 -35 q0 -22 11.5 -35.5t30.5 -13.5z" glyph-name="uni2076" horiz-adv-x="374" unicode="⁶"/><glyph d="M330 760v-46l-126 -338h-129l104 284h-150v100h301z" glyph-name="uni2077" horiz-adv-x="359" unicode="⁷"/><glyph d="M299 586q38 -14 59.5 -40.5t21.5 -57.5q0 -55 -47.5 -86.5t-128.5 -31.5t-128 31.5t-47 86.5q0 31 22 57.5t59 40.5q-55 26 -55 75t40 77t109 28q70 0 110 -28t40 -77q0 -50 -55 -75zM204 678q-16 0 -26.5 -9t-10.5 -23t10.5 -23t26.5 -9t26.5 9t10.5 23t-10.5 23 t-26.5 9zM204 464q23 0 37 11t14 30t-14 29.5t-37 10.5t-37 -10.5t-14 -29.5t14 -30t37 -11z" glyph-name="uni2078" horiz-adv-x="409" unicode="⁸"/><glyph d="M181 769q78 0 121 -50.5t43 -139.5q0 -100 -48.5 -156t-127.5 -56q-66 0 -119 33l23 79q38 -21 85 -21q66 0 83 74q-30 -29 -81 -29q-57 0 -93.5 32.5t-36.5 93.5q0 65 41.5 102.5t109.5 37.5zM187 575q19 0 30.5 14t11.5 35q0 23 -11 36.5t-30 13.5t-30.5 -14t-11.5 -36 t11.5 -35.5t29.5 -13.5z" glyph-name="uni2079" horiz-adv-x="374" unicode="⁹"/><glyph d="M213 -133q-82 0 -133 56t-51 145t51 145t133 56q83 0 133.5 -56t50.5 -145t-50.5 -145t-133.5 -56zM213 -27q28 0 44.5 26.5t16.5 68.5q0 43 -16.5 69t-44.5 26t-44 -26.5t-16 -68.5t16 -68.5t44 -26.5z" glyph-name="uni2080" horiz-adv-x="426" unicode="₀"/><glyph d="M101 -124v252l-72 -29v105l135 56h61v-384h-124z" glyph-name="uni2081" horiz-adv-x="295" unicode="₁"/><glyph d="M29 -124v48q107 88 145.5 128.5t38.5 73.5q0 16 -11.5 27t-31.5 11q-53 0 -101 -45l-26 85q67 65 151 65q66 0 104.5 -34.5t38.5 -95.5q0 -52 -27 -91.5t-85 -78.5h118v-93h-314z" glyph-name="uni2082" horiz-adv-x="372" unicode="₂"/><glyph d="M181 -130q-82 0 -152 39l26 86q50 -27 105 -27q33 0 54 13.5t21 30.5q0 20 -20 32t-55 12q-40 0 -71 -9l-9 28l96 93h-115v92h271v-48l-90 -84q53 -6 85 -38t32 -78q0 -66 -47.5 -104t-130.5 -38z" glyph-name="uni2083" horiz-adv-x="388" unicode="₃"/><glyph d="M238 -124v62h-209v54l186 268h128v-234h38v-88h-38v-62h-105zM158 26h80v120z" glyph-name="uni2084" horiz-adv-x="410" unicode="₄"/><glyph d="M205 127q72 0 114.5 -34.5t42.5 -89.5q0 -63 -48.5 -99.5t-129.5 -36.5q-88 0 -155 35l26 86q63 -24 114 -24q70 0 70 40q0 41 -81 41q-47 0 -86 -11l-15 23l20 203h245l-9 -87h-145l-5 -51q11 5 42 5z" glyph-name="uni2085" horiz-adv-x="391" unicode="₅"/><glyph d="M214 133q58 0 94.5 -32.5t36.5 -93.5q0 -65 -42 -102.5t-110 -37.5q-78 0 -121 50.5t-43 140.5q0 100 48.5 155.5t128.5 55.5q67 0 119 -33l-23 -79q-39 22 -85 22q-66 0 -83 -74q31 28 80 28zM187 -38q19 0 30 13.5t11 36.5q0 22 -11 35.5t-30 13.5t-30.5 -14t-11.5 -35 q0 -22 11.5 -36t30.5 -14z" glyph-name="uni2086" horiz-adv-x="374" unicode="₆"/><glyph d="M330 260v-46l-126 -338h-129l104 284h-150v100h301z" glyph-name="uni2087" horiz-adv-x="359" unicode="₇"/><glyph d="M299 86q38 -14 59.5 -40.5t21.5 -58.5q0 -55 -47.5 -86t-128.5 -31t-128 31.5t-47 85.5q0 32 22 58.5t59 40.5q-55 26 -55 75t40 77t109 28q70 0 110 -28t40 -77q0 -50 -55 -75zM204 178q-16 0 -26.5 -9t-10.5 -23t10.5 -23t26.5 -9t26.5 9t10.5 23t-10.5 23t-26.5 9z M204 -37q23 0 37 11.5t14 30.5t-14 29.5t-37 10.5t-37 -10.5t-14 -29.5t14 -30.5t37 -11.5z" glyph-name="uni2088" horiz-adv-x="409" unicode="₈"/><glyph d="M181 269q78 0 121 -50.5t43 -139.5q0 -100 -48.5 -156t-128.5 -56q-67 0 -119 33l23 79q39 -22 85 -22q66 0 83 74q-31 -28 -80 -28q-58 0 -94.5 32.5t-36.5 93.5q0 65 42 102.5t110 37.5zM187 75q19 0 30.5 14t11.5 35q0 22 -11.5 36t-30.5 14t-30 -13.5t-11 -36.5 q0 -22 11 -35.5t30 -13.5z" glyph-name="uni2089" horiz-adv-x="374" unicode="₉"/><glyph d="M442 142q87 0 181 49l39 -140q-94 -65 -222 -65q-131 0 -223.5 61.5t-124.5 168.5h-63l11 90h38v14v14h-49l11 90h53q32 107 124 168.5t223 61.5q128 0 222 -64l-39 -140q-90 48 -180 48q-108 0 -160 -74h250l-11 -90h-269v-14v-14h280l-11 -90h-238q51 -74 158 -74z" glyph-name="Euro" horiz-adv-x="691" unicode="€"/><glyph d="M604 196q0 -139 -166 -180v-117h-110v102q-11 -1 -34 -1h-13v-101h-110v101h-113v640h113v100h110v-100h13q23 0 34 -1v101h110v-120q124 -40 124 -149q0 -83 -78 -121q120 -38 120 -154zM299 496h-71v-100h71q41 0 65.5 13.5t24.5 38.5q0 24 -25.5 36t-64.5 12zM228 144 h71q61 0 96.5 16.5t35.5 49.5q0 64 -132 64h-71v-130z" glyph-name="uni20BF" horiz-adv-x="627" unicode="₿"/><glyph d="M291 -5l469 697l70 -47l-469 -697zM262 267q-108 0 -172.5 55t-64.5 146q0 92 64.5 146.5t172.5 54.5q94 0 157 -43l-29 -100q-67 26 -119 28q-47 1 -75.5 -23t-28.5 -64q0 -39 28 -61.5t76 -22.5q57 0 119 28l29 -101q-65 -43 -157 -43zM864 -12q-100 0 -160.5 55 t-60.5 146t60.5 146t160.5 55q101 0 161 -55t60 -146t-60.5 -146t-160.5 -55zM864 104q35 0 57.5 23.5t22.5 61.5q0 39 -22.5 62.5t-57.5 23.5t-57 -23.5t-22 -62.5q0 -38 22 -61.5t57 -23.5z" glyph-name="afii61248" horiz-adv-x="1111" unicode="℅"/><glyph d="M291 -5l469 697l70 -47l-469 -697zM262 267q-108 0 -172.5 55t-64.5 146q0 92 64.5 146.5t172.5 54.5q94 0 157 -43l-29 -100q-67 26 -119 28q-47 1 -75.5 -23t-28.5 -64q0 -39 28 -61.5t76 -22.5q57 0 119 28l29 -101q-65 -43 -157 -43zM940 -12q-94 0 -149 51t-55 137 v214h146v-214q0 -31 15.5 -50t42.5 -19t42 19t15 50v214h146v-214q0 -86 -55 -137t-148 -51z" glyph-name="uni2106" horiz-adv-x="1194" unicode="℆"/><glyph d="M919 280q-89 0 -144 51.5t-55 134.5t55 134.5t144 51.5t144 -51.5t55 -134.5t-55 -134.5t-144 -51.5zM58 0v640h95l309 -330v330h175v-640h-95l-309 331v-331h-175zM919 376q37 0 60.5 25t23.5 65t-23.5 65t-60.5 25t-60 -25t-23 -65t23 -65t60 -25z" glyph-name="afii61352" horiz-adv-x="1143" unicode="№"/><glyph d="M111 435q-61 0 -106 34l18 61q42 -26 87 -26q42 0 42 18q0 8 -21 15t-46 12.5t-46 24t-21 48.5q0 36 26.5 58t70.5 22q46 0 96 -30l-17 -60q-41 22 -74 22q-30 0 -30 -12q0 -7 20.5 -13.5t45.5 -13t45.5 -25t20.5 -46.5q0 -41 -30 -65t-81 -24zM236 440l31 256h50 l70 -146l69 146h49l32 -256h-78l-9 96l-46 -96h-35l-46 96l-9 -96h-78z" glyph-name="uni2120" horiz-adv-x="542" unicode="℠"/><glyph d="M5 631v65h200v-65h-60v-191h-78v191h-62zM404 696v-65h-103v-30h99v-61h-99v-34h103v-66h-180v256h180zM500 506h94v-66h-171v256h77v-190z" glyph-name="uni2121" horiz-adv-x="599" unicode="℡"/><glyph d="M205 696v-60h-63v-196h-73v196h-64v60h200zM497 696l32 -256h-74l-10 110l-52 -110h-33l-53 110l-10 -110h-74l32 256h47l75 -155l73 155h47z" glyph-name="trademark" horiz-adv-x="534" unicode="™"/><glyph d="M414 0q-158 0 -257 89t-99 236q0 145 99.5 235t256.5 90q159 0 253.5 -87t101.5 -247h-565q-8 0 -11.5 -3t-3.5 -14v-159q0 -31 67 -72.5t158 -41.5q64 0 124.5 29t100.5 74h66q-64 -71 -128.5 -100t-162.5 -29zM622 336q9 0 12 3t3 12v156q0 39 -74.5 79.5t-149.5 40.5 q-86 0 -155 -43t-69 -70v-170q0 -8 15 -8h418z" glyph-name="estimated" horiz-adv-x="827" unicode="℮"/><glyph d="M569 692l70 -47l-469 -697l-70 47zM101 276v252l-72 -29v105l135 56h61v-384h-124zM743 210q38 -14 59.5 -40.5t21.5 -57.5q0 -55 -47.5 -86.5t-128.5 -31.5t-128 31.5t-47 86.5q0 31 22 57.5t59 40.5q-55 26 -55 75t40 77t109 28q70 0 110 -28t40 -77q0 -50 -55 -75z M648 302q-16 0 -26.5 -9t-10.5 -23t10.5 -23t26.5 -9t26.5 9t10.5 23t-10.5 23t-26.5 9zM648 88q23 0 37 11t14 30t-14 29.5t-37 10.5t-37 -10.5t-14 -29.5t14 -30t37 -11z" glyph-name="oneeighth" horiz-adv-x="853" unicode="⅛"/><glyph d="M662 692l70 -47l-469 -697l-70 47zM359 412q0 -65 -48 -103.5t-130 -38.5q-83 0 -152 40l26 86q52 -28 105 -28q33 0 54 14t21 30q0 20 -20 32t-55 12q-40 0 -71 -9l-9 28l96 93h-115v92h271v-48l-90 -84q53 -6 85 -38t32 -78zM836 210q38 -14 59.5 -40.5t21.5 -57.5 q0 -55 -47.5 -86.5t-128.5 -31.5t-128 31.5t-47 86.5q0 31 22 57.5t59 40.5q-55 26 -55 75t40 77t109 28q70 0 110 -28t40 -77q0 -50 -55 -75zM741 302q-16 0 -26.5 -9t-10.5 -23t10.5 -23t26.5 -9t26.5 9t10.5 23t-10.5 23t-26.5 9zM741 88q23 0 37 11t14 30t-14 29.5 t-37 10.5t-37 -10.5t-14 -29.5t14 -30t37 -11z" glyph-name="threeeighths" horiz-adv-x="946" unicode="⅜"/><glyph d="M665 692l70 -47l-469 -697l-70 47zM362 403q0 -63 -48.5 -99.5t-129.5 -36.5q-88 0 -155 35l26 87q58 -24 114 -24q70 0 70 39q0 41 -81 41q-47 0 -86 -11l-15 23l20 203h245l-9 -87h-145l-5 -51q11 5 42 5q72 0 114.5 -34.5t42.5 -89.5zM839 210q38 -14 59.5 -40.5 t21.5 -57.5q0 -55 -47.5 -86.5t-128.5 -31.5t-128 31.5t-47 86.5q0 31 22 57.5t59 40.5q-55 26 -55 75t40 77t109 28q70 0 110 -28t40 -77q0 -50 -55 -75zM744 302q-16 0 -26.5 -9t-10.5 -23t10.5 -23t26.5 -9t26.5 9t10.5 23t-10.5 23t-26.5 9zM744 88q23 0 37 11t14 30 t-14 29.5t-37 10.5t-37 -10.5t-14 -29.5t14 -30t37 -11z" glyph-name="fiveeighths" horiz-adv-x="949" unicode="⅝"/><glyph d="M568 692l70 -47l-469 -697l-70 47zM204 276h-129l104 284h-150v100h301v-46zM742 210q38 -14 59.5 -40.5t21.5 -57.5q0 -55 -47.5 -86.5t-128.5 -31.5t-128 31.5t-47 86.5q0 31 22 57.5t59 40.5q-55 26 -55 75t40 77t109 28q70 0 110 -28t40 -77q0 -50 -55 -75zM647 302 q-16 0 -26.5 -9t-10.5 -23t10.5 -23t26.5 -9t26.5 9t10.5 23t-10.5 23t-26.5 9zM647 88q23 0 37 11t14 30t-14 29.5t-37 10.5t-37 -10.5t-14 -29.5t14 -30t37 -11z" glyph-name="seveneighths" horiz-adv-x="852" unicode="⅞"/><glyph d="M860 358v-149h-483l174 -167h-180l-231 224v30l231 228h180l-170 -166h479z" glyph-name="arrowleft" horiz-adv-x="1000" unicode="←"/><glyph d="M741 413v-180l-166 170v-480h-149v484l-167 -174v180l224 230h30z" glyph-name="arrowup" horiz-adv-x="1000" unicode="↑"/><glyph d="M630 519l230 -224v-29l-230 -229h-180l170 167h-480v149h483l-173 166h180z" glyph-name="arrowright" horiz-adv-x="1000" unicode="→"/><glyph d="M575 157l166 173v-180l-224 -231h-29l-229 231v180l167 -171v480h149v-482z" glyph-name="arrowdown" horiz-adv-x="1000" unicode="↓"/><glyph d="M720 524l230 -224v-29l-230 -229h-180l170 167h-423l174 -167h-180l-231 224v30l231 228h180l-170 -166h422l-173 166h180z" glyph-name="arrowboth" horiz-adv-x="1000" unicode="↔"/><glyph d="M741 323l-166 170v-422l166 173v-180l-224 -231h-29l-229 231v180l167 -171v424l-167 -174v180l224 230h30l228 -230v-180z" glyph-name="arrowupdn" horiz-adv-x="1000" unicode="↕"/><glyph d="M784 81l-105 -106l-341 342l4 -241l-127 128l-4 321l20 21l325 -1l127 -128l-238 3z" glyph-name="uni2196" horiz-adv-x="1000" unicode="↖"/><glyph d="M762 523l20 -21l-1 -325l-127 -127l2 238l-339 -339l-105 105l341 342l-240 -5l127 127z" glyph-name="uni2197" horiz-adv-x="1000" unicode="↗"/><glyph d="M785 358l4 -321l-20 -21l-325 1l-127 128l238 -3l-339 339l105 106l341 -342l-4 241z" glyph-name="uni2198" horiz-adv-x="1000" unicode="↘"/><glyph d="M788 485l-341 -342l240 5l-127 -127l-322 -5l-20 21l1 325l127 127l-2 -238l339 339z" glyph-name="uni2199" horiz-adv-x="1000" unicode="↙"/><glyph d="M643 523q59 -86 59 -192q0 -140 -98 -238.5t-238 -98.5q-107 0 -193 59l-50 -50l-85 86l50 50q-59 84 -59 192q0 141 98 238.5t239 97.5q105 0 191 -59l50 50l86 -85zM151 331q0 -56 25 -104l293 293q-47 25 -103 25q-90 0 -152.5 -61.5t-62.5 -152.5zM366 116 q90 0 152 62.5t62 152.5q0 56 -25 104l-293 -293q46 -26 104 -26z" glyph-name="emptyset" horiz-adv-x="731" unicode="∅"/><glyph d="M100 233v142h438v-142h-438z" glyph-name="minus" unicode="−"/><glyph d="M194 235q-41 0 -67.5 24t-26.5 61q0 38 26.5 62t67.5 24t67 -24t26 -62t-26 -61.5t-67 -23.5z" glyph-name="uni2219" horiz-adv-x="377" unicode="∙"/><glyph d="M632 160v-105h-61q3 -33 3 -68h-133q0 39 -4 68h-408l288 266q-36 34 -62 51l84 106q44 -31 77 -66l51 47l78 -88l-59 -51q44 -70 67 -160h79zM300 160h115q-15 42 -32 72z" glyph-name="uni2221" horiz-adv-x="661" unicode="∡"/><glyph d="M553 371q41 -123 0 -242l62 -28l-57 -123l-62 32q-12 -21 -27 -42l-124 80q7 10 19 30l-335 172l335 172q-2 3 -8.5 13t-10.5 16l124 80q15 -21 27 -42l62 32l57 -122zM286 250l129 -58q14 59 -1 116z" glyph-name="uni2222" horiz-adv-x="644" unicode="∢"/><glyph d="M400 355q-51 0 -96 24t-65 24q-23 0 -36 -10.5t-13 -27.5h-115q0 73 42 116t120 43q50 0 94.5 -24.5t65.5 -24.5q24 0 37.5 10.5t13.5 27.5h115q0 -72 -42.5 -115t-120.5 -43zM400 142q-51 0 -96 24t-65 24q-23 0 -36 -10.5t-13 -27.5h-115q0 73 42 116t120 43 q50 0 94.5 -24.5t65.5 -24.5q24 0 37.5 10.5t13.5 27.5h115q0 -72 -42.5 -115t-120.5 -43z" glyph-name="approxequal" unicode="≈"/><glyph d="M568 359h-179l-42 -110h221v-130h-269l-45 -119h-109l45 119h-120v130h168l42 110h-210v130h258l57 151h109l-57 -151h131v-130z" glyph-name="notequal" unicode="≠"/><glyph d="M558 346v-120l-478 104v134l478 104v-120l-344 -51zM558 84h-478v114h478v-114z" glyph-name="lessequal" unicode="≤"/><glyph d="M80 346l344 51l-344 51v120l478 -104v-134l-478 -104v120zM80 84v114h478v-114h-478z" glyph-name="greaterequal" unicode="≥"/><glyph d="M546 699l-296 -59l296 -58v-144l-453 134v136l453 135v-144zM70 240v130h498v-130h-498zM70 0v130h498v-130h-498z" glyph-name="uni2266" unicode="≦"/><glyph d="M93 582l295 58l-295 59v144l453 -135v-135l-453 -135v144zM70 240v130h498v-130h-498zM70 0v130h498v-130h-498z" glyph-name="uni2267" unicode="≧"/><glyph d="M481 134h120v-134h-572v600h134v-148q154 -1 235.5 -82.5t82.5 -235.5zM163 318v-184h184q-1 98 -43.5 140.5t-140.5 43.5z" glyph-name="uni22BE" horiz-adv-x="630" unicode="⊾"/><glyph d="M29 0l602 633v-633h-602zM221 134h277v293z" glyph-name="uni22BF" horiz-adv-x="660" unicode="⊿"/><glyph d="M568 468q56 -77 56 -174q0 -125 -86 -212t-210 -87q-98 0 -176 57l-42 -42l-66 66l42 42q-57 78 -57 176q0 124 87 210t212 86q97 0 174 -56l42 42l66 -66zM124 294q0 -59 30 -108l280 280q-50 29 -106 29q-86 0 -145 -58t-59 -143zM328 90q85 0 143 59t58 145 q0 56 -29 106l-280 -280q49 -30 108 -30z" glyph-name="uni2300" horiz-adv-x="653" unicode="⌀"/><glyph d="M102 358l-73 73l225 225l225 -225l-73 -73l-152 152z" glyph-name="uni2303" horiz-adv-x="508" unicode="⌃"/><glyph d="M406 402l72 -73l-225 -224l-224 224l72 73l154 -152z" glyph-name="uni2304" horiz-adv-x="507" unicode="⌄"/><glyph d="M729 325v-57h-115q-9 -85 -65 -141.5t-141 -64.5v-116h-57v115q-85 9 -141.5 65.5t-65.5 141.5h-115v57h116q8 85 64.5 141t141.5 65v115h57v-116q84 -8 140.5 -64.5t64.5 -140.5h116zM351 476q-65 -8 -104 -47t-46 -104h150v151zM558 325q-7 65 -46.5 104t-103.5 46 v-150h150zM200 268q8 -65 47 -104.5t104 -46.5v151h-151zM408 118q65 7 104 46t47 104h-151v-150z" glyph-name="uni2316" horiz-adv-x="758" unicode="⌖"/><glyph d="M727 403h-166v-207h166v-79h-166v-167h-79v167h-207v-167h-79v167h-167v79h167v207h-167v79h167v166h79v-166h207v166h79v-166h166v-79zM482 196v207h-207v-207h207z" glyph-name="uni2317" horiz-adv-x="756" unicode="⌗"/><glyph d="M388 -13q-136 0 -233 96.5t-97 233.5t97 233.5t233 96.5t233 -96.5t97 -233.5t-97 -233.5t-233 -96.5zM388 29q119 0 203.5 84.5t84.5 203.5t-84.5 203.5t-203.5 84.5t-203.5 -84.5t-84.5 -203.5t84.5 -203.5t203.5 -84.5zM333 115v252l-72 -29v105l134 56h62v-384h-124z " glyph-name="uni2460" horiz-adv-x="776" unicode="①"/><glyph d="M388 -17q-136 0 -233 96.5t-97 233.5t97 233.5t233 96.5t233 -96.5t97 -233.5t-97 -233.5t-233 -96.5zM388 25q119 0 203.5 84.5t84.5 203.5t-84.5 203.5t-203.5 84.5t-203.5 -84.5t-84.5 -203.5t84.5 -203.5t203.5 -84.5zM229 127v48q108 89 146 129t38 73 q0 17 -11.5 27.5t-32.5 10.5q-54 0 -100 -46l-26 86q67 65 150 65q67 0 105 -34.5t38 -95.5q0 -53 -27 -92.5t-85 -77.5h118v-93h-313z" glyph-name="uni2461" horiz-adv-x="776" unicode="②"/><glyph d="M388 -17q-136 0 -233 96.5t-97 233.5t97 233.5t233 96.5t233 -96.5t97 -233.5t-97 -233.5t-233 -96.5zM388 25q119 0 203.5 84.5t84.5 203.5t-84.5 203.5t-203.5 84.5t-203.5 -84.5t-84.5 -203.5t84.5 -203.5t203.5 -84.5zM378 108q-83 0 -152 40l26 86q52 -28 105 -28 q33 0 54 14t21 30q0 20 -20 32t-55 12q-39 0 -71 -9l-9 28l96 93h-115v92h271v-48l-90 -84q53 -6 85 -38t32 -78q0 -65 -48 -103.5t-130 -38.5z" glyph-name="uni2462" horiz-adv-x="776" unicode="③"/><glyph d="M388 -13q-136 0 -233 96.5t-97 233.5t97 233.5t233 96.5t233 -96.5t97 -233.5t-97 -233.5t-233 -96.5zM388 29q119 0 203.5 84.5t84.5 203.5t-84.5 203.5t-203.5 84.5t-203.5 -84.5t-84.5 -203.5t84.5 -203.5t203.5 -84.5zM409 125v62h-209v55l186 267h128v-234h38v-88 h-38v-62h-105zM329 275h80v120z" glyph-name="uni2463" horiz-adv-x="776" unicode="④"/><glyph d="M388 647q136 0 233 -96.5t97 -233.5t-97 -233.5t-233 -96.5t-233 96.5t-97 233.5t97 233.5t233 96.5zM388 29q119 0 203.5 84.5t84.5 203.5t-84.5 203.5t-203.5 84.5t-203.5 -84.5t-84.5 -203.5t84.5 -203.5t203.5 -84.5zM404 382q72 0 115 -34.5t43 -89.5q0 -62 -49 -99 t-129 -37q-90 0 -155 35l25 87q58 -24 115 -24q69 0 69 39q0 41 -81 41q-46 0 -85 -11l-15 23l20 203h244l-9 -87h-145l-5 -51q15 5 42 5z" glyph-name="uni2464" horiz-adv-x="776" unicode="⑤"/><glyph d="M388 647q136 0 233 -96.5t97 -233.5t-97 -233.5t-233 -96.5t-233 96.5t-97 233.5t97 233.5t233 96.5zM388 29q119 0 203.5 84.5t84.5 203.5t-84.5 203.5t-203.5 84.5t-203.5 -84.5t-84.5 -203.5t84.5 -203.5t203.5 -84.5zM416 382q57 0 93.5 -32.5t36.5 -93.5 q0 -64 -41.5 -102t-109.5 -38q-78 0 -121 50.5t-43 140.5q0 99 48 155t128 56q69 0 119 -33l-23 -79q-38 22 -85 22q-66 0 -83 -75q30 29 81 29zM388 212q19 0 30.5 13.5t11.5 35.5t-11.5 35.5t-29.5 13.5q-19 0 -30.5 -14t-11.5 -35q0 -22 11 -35.5t30 -13.5z" glyph-name="uni2465" horiz-adv-x="776" unicode="⑥"/><glyph d="M388 646q136 0 233 -97t97 -233t-97 -233t-233 -97t-233 97t-97 233t97 233t233 97zM388 28q119 0 203.5 84.5t84.5 203.5t-84.5 203.5t-203.5 84.5t-203.5 -84.5t-84.5 -203.5t84.5 -203.5t203.5 -84.5zM539 509v-46l-126 -338h-129l104 284h-150v100h301z" glyph-name="uni2466" horiz-adv-x="776" unicode="⑦"/><glyph d="M388 647q136 0 233 -96.5t97 -233.5t-97 -233.5t-233 -96.5t-233 96.5t-97 233.5t97 233.5t233 96.5zM388 29q119 0 203.5 84.5t84.5 203.5t-84.5 203.5t-203.5 84.5t-203.5 -84.5t-84.5 -203.5t84.5 -203.5t203.5 -84.5zM483 335q38 -14 59.5 -40.5t21.5 -57.5 q0 -55 -47.5 -86.5t-128.5 -31.5t-128 31.5t-47 86.5q0 31 22 57.5t59 40.5q-55 26 -55 75t40 77t109 28q70 0 110 -28t40 -77q0 -50 -55 -75zM388 427q-16 0 -26.5 -9t-10.5 -23t10.5 -23t26.5 -9t26.5 9t10.5 23t-10.5 23t-26.5 9zM388 213q23 0 37 11t14 30t-14 29.5 t-37 10.5t-37 -10.5t-14 -29.5t14 -30t37 -11z" glyph-name="uni2467" horiz-adv-x="776" unicode="⑧"/><glyph d="M388 645q136 0 233 -96.5t97 -233.5t-97 -233.5t-233 -96.5t-233 96.5t-97 233.5t97 233.5t233 96.5zM388 27q119 0 203.5 84.5t84.5 203.5t-84.5 203.5t-203.5 84.5t-203.5 -84.5t-84.5 -203.5t84.5 -203.5t203.5 -84.5zM382 517q78 0 121 -50.5t43 -139.5 q0 -100 -48.5 -156t-127.5 -56q-66 0 -119 33l23 79q38 -21 85 -21q66 0 83 74q-30 -29 -81 -29q-57 0 -93.5 32.5t-36.5 93.5q0 65 41.5 102.5t109.5 37.5zM388 323q19 0 30.5 14t11.5 35q0 23 -11 36.5t-30 13.5t-30.5 -14t-11.5 -36t11.5 -35.5t29.5 -13.5z" glyph-name="uni2468" horiz-adv-x="776" unicode="⑨"/><glyph d="M388 -13q-136 0 -233 96.5t-97 233.5t97 233.5t233 96.5t233 -96.5t97 -233.5t-97 -233.5t-233 -96.5zM388 29q119 0 203.5 84.5t84.5 203.5t-84.5 203.5t-203.5 84.5t-203.5 -84.5t-84.5 -203.5t84.5 -203.5t203.5 -84.5zM388 116q-82 0 -133 56.5t-51 144.5 q0 89 51 145t133 56q83 0 133.5 -56t50.5 -145t-50.5 -145t-133.5 -56zM388 222q28 0 44.5 26.5t16.5 68.5q0 43 -16.5 69t-44.5 26t-44 -26.5t-16 -68.5t16 -68.5t44 -26.5z" glyph-name="uni24EA" horiz-adv-x="776" unicode="⓪"/><glyph d="M199 0l-141 320l141 320h130l141 -320l-141 -320h-130zM264 148l61 172l-61 173l-62 -173z" glyph-name="lozenge" horiz-adv-x="528" unicode="◊"/><glyph d="M743 277h-156q-7 -32 -26 -64l111 -111l-65 -65l-111 111q-30 -19 -63 -26v-158h-93v157q-32 7 -64 26l-110 -110l-65 65l110 110q-19 31 -26 65h-156v92h156q9 35 27 63l-111 111l65 65l111 -111q29 17 63 26v158h93v-158q34 -8 63 -26l111 111l65 -65l-112 -112 q18 -28 27 -62h156v-92zM387 230q39 0 65 26t26 66t-26 66t-65 26q-40 0 -66.5 -26t-26.5 -66t26.5 -66t66.5 -26z" glyph-name="sun" horiz-adv-x="772" unicode="☼"/><glyph glyph-name="uni3000" horiz-adv-x="1000" unicode="　"/><glyph d="M58 0v640h175v-640h-175z" glyph-name="I.aalt" horiz-adv-x="291"/><glyph d="M171 715h-95l67 120h128zM58 0v640h175v-640h-175z" glyph-name="Iacute.aalt" horiz-adv-x="291"/><glyph d="M11 715l86 120h97l85 -120h-84l-50 54l-49 -54h-85zM58 0v640h175v-640h-175z" glyph-name="Icircumflex.aalt" horiz-adv-x="291"/><glyph d="M65 713q-25 0 -41 15t-16 37q0 23 16 38t41 15t40.5 -15t15.5 -38q0 -22 -16 -37t-40 -15zM227 713q-24 0 -40 15t-16 37q0 23 15.5 38t40.5 15t40.5 -15t15.5 -38q0 -22 -16 -37t-40 -15zM58 0v640h175v-640h-175z" glyph-name="Idieresis.aalt" horiz-adv-x="291"/><glyph d="M146 704q-29 0 -48 17t-19 44t19 44.5t48 17.5q30 0 48.5 -17.5t18.5 -44.5t-18.5 -44t-48.5 -17zM58 0v640h175v-640h-175z" glyph-name="Idotaccent.aalt" horiz-adv-x="291"/><glyph d="M148 715l-100 120h128l67 -120h-95zM58 0v640h175v-640h-175z" glyph-name="Igrave.aalt" horiz-adv-x="291"/><glyph d="M8 725v78h275v-78h-275zM58 0v640h175v-640h-175z" glyph-name="Imacron.aalt" horiz-adv-x="291"/><glyph d="M233 640v-640h-7l6 -1q-87 -50 -87 -93q0 -28 49 -28h23l-6 -67h-35q-102 0 -102 74q0 62 82 115h-98v640h175z" glyph-name="Iogonek.aalt" horiz-adv-x="291"/><glyph d="M133 504q-29 0 -48 17t-19 44t19 44.5t48 17.5q30 0 48.5 -17.5t18.5 -44.5t-18.5 -44t-48.5 -17zM50 0v440h165v-440h-165z" glyph-name="i.aalt" horiz-adv-x="265"/><glyph d="M314 654q129 0 207 -93t78 -241t-78 -241t-207 -93t-207 93t-78 241t78 241t207 93zM314 499q-51 0 -80.5 -49t-29.5 -129q0 -37 6 -67l176 209q-28 36 -72 36zM314 142q52 0 81.5 49.5t29.5 129.5q0 36 -6 66l-176 -210q29 -35 71 -35z" glyph-name="zero.zero"/><glyph d="M314 -14q-129 0 -207 93t-78 241t78 241t207 93t207 -93t78 -241t-78 -241t-207 -93zM314 142q52 0 81.5 49.5t29.5 129.5t-29.5 129t-81.5 49q-51 0 -80.5 -49t-29.5 -129t29 -129.5t81 -49.5z" glyph-name="zero.oldstyle.case"/><glyph d="M160 0v449l-131 -52v150l220 93h86v-640h-175z" glyph-name="one.oldstyle.case" horiz-adv-x="405"/><glyph d="M29 0v68q177 145 246 226.5t69 132.5q0 31 -20.5 51t-61.5 20q-93 0 -171 -83l-37 129q101 110 235 110q106 0 167.5 -58.5t61.5 -160.5q0 -161 -193 -291h203v-144h-499z" glyph-name="two.oldstyle.case" horiz-adv-x="557"/><glyph d="M271 -10q-132 0 -242 63l38 130q84 -45 181 -45q59 0 95 22.5t36 55.5q0 37 -37.5 58.5t-101.5 21.5q-72 0 -133 -21l-13 51l183 175h-196v139h429v-68l-157 -154q93 -7 146.5 -60.5t53.5 -135.5q0 -108 -76 -170t-206 -62z" glyph-name="three.oldstyle.case" horiz-adv-x="582"/><glyph d="M375 0v111h-346v79l331 450h174v-390h65v-139h-65v-111h-159zM247 250h128v191z" glyph-name="four.oldstyle.case"/><glyph d="M305 423q116 0 184.5 -59t68.5 -153q0 -104 -77.5 -164.5t-206.5 -60.5q-139 0 -245 61l38 130q93 -43 190 -43q60 0 93 20t33 54q0 39 -37.5 61t-107.5 22q-80 0 -147 -18l-18 31l32 336h388l-13 -144h-242l-7 -80q32 7 74 7z" glyph-name="five.oldstyle.case" horiz-adv-x="587"/><glyph d="M314 437q94 0 154.5 -59.5t60.5 -158.5q0 -105 -67 -169t-174 -64q-123 0 -191 86t-68 235q0 160 76.5 253.5t202.5 93.5q110 0 189 -57l-35 -125q-65 38 -141 38q-110 0 -135 -122q52 49 128 49zM280 133q38 0 59.5 26t21.5 67t-22 65.5t-59 24.5q-38 0 -60 -24.5 t-22 -66.5t23 -67t59 -25z" glyph-name="six.oldstyle.case" horiz-adv-x="558"/><glyph d="M505 640v-63l-218 -577h-179l179 493h-258v147h476z" glyph-name="seven.oldstyle.case" horiz-adv-x="534"/><glyph d="M464 350q56 -24 88.5 -68.5t32.5 -94.5q0 -89 -75.5 -143t-202.5 -54q-126 0 -202 54t-76 143q0 50 32.5 94.5t89.5 68.5q-38 21 -59 54t-21 69q0 80 64.5 128.5t171.5 48.5t171.5 -48.5t64.5 -128.5q0 -36 -21 -68.5t-58 -54.5zM307 508q-32 0 -52 -15t-20 -39 q0 -28 20 -45t52 -17t52 17t20 45q0 24 -20 39t-52 15zM307 137q47 0 75.5 20t28.5 54q0 32 -29 54t-75 22t-74.5 -22t-28.5 -54q0 -34 28 -54t75 -20z" glyph-name="eight.oldstyle.case" horiz-adv-x="614"/><glyph d="M271 654q123 0 190.5 -85.5t67.5 -235.5q0 -160 -76 -253.5t-202 -93.5q-112 0 -190 58l35 125q64 -39 141 -39q111 0 136 124q-50 -50 -128 -50q-94 0 -155 59t-61 159q0 105 67.5 168.5t174.5 63.5zM279 324q38 0 60 24.5t22 66.5t-23 67t-60 25q-38 0 -59 -26t-21 -67 q0 -42 21.5 -66t59.5 -24z" glyph-name="nine.oldstyle.case" horiz-adv-x="558"/><glyph d="M314 654q129 0 207 -93t78 -241t-78 -241t-207 -93t-207 93t-78 241t78 241t207 93zM314 499q-51 0 -80.5 -49t-29.5 -129q0 -37 6 -67l176 209q-28 36 -72 36zM314 142q52 0 81.5 49.5t29.5 129.5q0 36 -6 66l-176 -210q29 -35 71 -35z" glyph-name="zero.oldstyle.case.zero"/><glyph d="M285 -14q-112 0 -184 65.5t-72 167.5q0 103 71.5 168t184.5 65t185 -65t72 -168q0 -102 -72 -167.5t-185 -65.5zM285 131q36 0 59 25t23 64q0 38 -23 63t-59 25q-35 0 -58 -25t-23 -63q0 -39 23 -64t58 -25z" glyph-name="zero.oldstyle" horiz-adv-x="571"/><glyph d="M160 0v264l-131 -42v135l220 83h86v-440h-175z" glyph-name="one.oldstyle" horiz-adv-x="405"/><glyph d="M29 0v69q115 73 180.5 130t65.5 85q0 19 -15.5 30.5t-41.5 11.5q-67 0 -135 -59l-36 121q82 73 202 73q90 0 141.5 -39t51.5 -107q0 -52 -38.5 -100.5t-106.5 -81.5h153v-133h-421z" glyph-name="two.oldstyle" horiz-adv-x="479"/><glyph d="M243 -232q-110 0 -214 68l38 129q81 -50 160 -50q46 0 80.5 25t34.5 62q0 40 -35 66t-88 26q-68 0 -129 -21l-13 51l168 177h-181v139h404v-68l-152 -154q95 -9 147.5 -67.5t52.5 -146.5q0 -108 -76.5 -172t-196.5 -64z" glyph-name="three.oldstyle" horiz-adv-x="545"/><glyph d="M336 -182v182h-307v89l281 351h180v-311h65v-129h-65v-168zM232 129h104v148z" glyph-name="four.oldstyle" horiz-adv-x="584"/><glyph d="M295 204q109 0 176 -59.5t67 -153.5q0 -103 -76 -163.5t-198 -60.5q-128 0 -235 60l38 130q91 -42 190 -42q47 0 76.5 20t29.5 53q0 39 -34 61.5t-91 22.5q-80 0 -147 -18l-18 31l32 355h368l-13 -144h-222l-7 -98q21 6 64 6z" glyph-name="five.oldstyle" horiz-adv-x="567"/><glyph d="M314 437q94 0 154.5 -59.5t60.5 -158.5q0 -105 -67 -169t-174 -64q-123 0 -191 86t-68 235q0 160 76.5 253.5t202.5 93.5q110 0 189 -57l-35 -125q-65 38 -141 38q-110 0 -135 -122q52 49 128 49zM280 133q38 0 59.5 26t21.5 67t-22 65.5t-59 24.5q-38 0 -60 -24.5 t-22 -66.5t23 -67t59 -25z" glyph-name="six.oldstyle" horiz-adv-x="558"/><glyph d="M485 440v-63l-218 -597h-179l180 513h-239v147h456z" glyph-name="seven.oldstyle" horiz-adv-x="514"/><glyph d="M464 350q56 -24 88.5 -68.5t32.5 -94.5q0 -89 -75.5 -143t-202.5 -54q-126 0 -202 54t-76 143q0 50 32.5 94.5t89.5 68.5q-38 21 -59 54t-21 69q0 80 64.5 128.5t171.5 48.5t171.5 -48.5t64.5 -128.5q0 -36 -21 -68.5t-58 -54.5zM307 508q-32 0 -52 -15t-20 -39 q0 -28 20 -45t52 -17t52 17t20 45q0 24 -20 39t-52 15zM307 137q47 0 75.5 20t28.5 54q0 32 -29 54t-75 22t-74.5 -22t-28.5 -54q0 -34 28 -54t75 -20z" glyph-name="eight.oldstyle" horiz-adv-x="614"/><glyph d="M271 455q123 0 190.5 -85.5t67.5 -235.5q0 -168 -76 -266.5t-202 -98.5q-113 0 -190 57l35 128q67 -41 141 -41q54 0 90 36t47 107q-51 -51 -129 -51q-94 0 -155 59t-61 159q0 105 67.5 168.5t174.5 63.5zM279 125q38 0 60 24.5t22 66.5t-23 67t-60 25q-38 0 -59 -26 t-21 -67q0 -42 21.5 -66t59.5 -24z" glyph-name="nine.oldstyle" horiz-adv-x="558"/><glyph d="M285 452q113 0 185 -65t72 -168q0 -102 -72 -167.5t-185 -65.5q-112 0 -184 65.5t-72 167.5q0 103 71.5 168t184.5 65zM285 308q-35 0 -58 -25t-23 -63q0 -23 8 -42l104 124q-13 6 -31 6zM285 131q36 0 59 25t23 64q0 21 -8 40l-104 -124q15 -5 30 -5z" glyph-name="zero.oldstyle.zero" horiz-adv-x="571"/><glyph d="M314 -14q-129 0 -207 93t-78 241t78 241t207 93t207 -93t78 -241t-78 -241t-207 -93zM314 142q52 0 81.5 49.5t29.5 129.5t-29.5 129t-81.5 49q-51 0 -80.5 -49t-29.5 -129t29 -129.5t81 -49.5z" glyph-name="zero.tnum"/><glyph d="M403 132h160v-132h-498v132h164v317l-131 -52v150l220 93h85v-508z" glyph-name="one.tnum"/><glyph d="M65 0v68q177 145 246 226.5t69 132.5q0 31 -20.5 51t-61.5 20q-93 0 -171 -83l-37 129q101 110 235 110q106 0 167.5 -58.5t61.5 -160.5q0 -161 -193 -291h203v-144h-499z" glyph-name="two.tnum"/><glyph d="M294 -10q-132 0 -242 63l38 130q84 -45 181 -45q59 0 95 22.5t36 55.5q0 37 -37.5 58.5t-101.5 21.5q-72 0 -133 -21l-13 51l183 175h-196v139h429v-68l-157 -154q93 -7 146.5 -60.5t53.5 -135.5q0 -108 -76 -170t-206 -62z" glyph-name="three.tnum"/><glyph d="M375 0v111h-346v79l331 450h174v-390h65v-139h-65v-111h-159zM247 250h128v191z" glyph-name="four.tnum"/><glyph d="M325 423q116 0 184.5 -59t68.5 -153q0 -104 -77 -164.5t-206 -60.5q-141 0 -245 61l37 130q95 -43 191 -43q60 0 93 20t33 54q0 39 -37.5 61t-107.5 22q-80 0 -147 -18l-19 31l33 336h388l-14 -144h-241l-7 -80q30 7 73 7z" glyph-name="five.tnum"/><glyph d="M349 437q94 0 154.5 -59.5t60.5 -158.5q0 -105 -67 -169t-174 -64q-123 0 -191 86t-68 235q0 160 76.5 253.5t202.5 93.5q110 0 189 -57l-35 -125q-65 38 -141 38q-110 0 -135 -122q52 49 128 49zM315 133q38 0 59.5 26t21.5 67t-22 65.5t-59 24.5q-38 0 -60 -24.5 t-22 -66.5t23 -67t59 -25z" glyph-name="six.tnum"/><glyph d="M552 640v-63l-218 -577h-179l179 493h-258v147h476z" glyph-name="seven.tnum"/><glyph d="M471 350q56 -24 88.5 -68.5t32.5 -94.5q0 -89 -75.5 -143t-202.5 -54q-126 0 -202 54t-76 143q0 50 32.5 94.5t89.5 68.5q-38 21 -59 54t-21 69q0 80 64.5 128.5t171.5 48.5t171.5 -48.5t64.5 -128.5q0 -36 -21 -68.5t-58 -54.5zM314 508q-32 0 -52 -15t-20 -39 q0 -28 20 -45t52 -17t52 17t20 45q0 24 -20 39t-52 15zM314 137q47 0 75.5 20t28.5 54q0 32 -29 54t-75 22t-74.5 -22t-28.5 -54q0 -34 28 -54t75 -20z" glyph-name="eight.tnum"/><glyph d="M306 654q123 0 190.5 -85.5t67.5 -235.5q0 -160 -76 -253.5t-202 -93.5q-112 0 -190 58l35 125q64 -39 141 -39q111 0 136 124q-50 -50 -128 -50q-94 0 -155 59t-61 159q0 105 67.5 168.5t174.5 63.5zM314 324q38 0 60 24.5t22 66.5t-23 67t-60 25q-38 0 -59 -26t-21 -67 q0 -42 21.5 -66t59.5 -24z" glyph-name="nine.tnum"/><glyph d="M314 654q129 0 207 -93t78 -241t-78 -241t-207 -93t-207 93t-78 241t78 241t207 93zM314 499q-51 0 -80.5 -49t-29.5 -129q0 -37 6 -67l176 209q-28 36 -72 36zM314 142q52 0 81.5 49.5t29.5 129.5q0 36 -6 66l-176 -210q29 -35 71 -35z" glyph-name="zero.tnum.zero"/><glyph d="M292 -14q-112 0 -184 65.5t-72 167.5q0 103 71.5 168t184.5 65t184.5 -65t71.5 -168q0 -102 -72 -167.5t-184 -65.5zM292 131q36 0 59 25t23 64q0 38 -23 63t-59 25t-59 -25t-23 -63q0 -39 23 -64t59 -25z" glyph-name="zero.tnum.oldstyle" horiz-adv-x="584"/><glyph d="M390 124h129v-124h-454v124h150v140l-131 -42v135l220 83h86v-316z" glyph-name="one.tnum.oldstyle" horiz-adv-x="584"/><glyph d="M82 0v69q114 73 179.5 130t65.5 85q0 20 -15 31t-41 11q-69 0 -135 -59l-36 121q82 73 202 73q89 0 140.5 -39t51.5 -107q0 -52 -38.5 -100.5t-105.5 -81.5h152v-133h-420z" glyph-name="two.tnum.oldstyle" horiz-adv-x="584"/><glyph d="M262 -232q-111 0 -213 68l37 129q81 -50 161 -50q46 0 80 25t34 62q0 40 -34.5 66t-87.5 26q-69 0 -130 -21l-12 51l167 177h-181v139h405v-68l-152 -154q95 -9 147.5 -67.5t52.5 -146.5q0 -108 -76.5 -172t-197.5 -64z" glyph-name="three.tnum.oldstyle" horiz-adv-x="584"/><glyph d="M336 -182v182h-307v89l281 351h180v-311h65v-129h-65v-168zM232 129h104v148z" glyph-name="four.tnum.oldstyle" horiz-adv-x="584"/><glyph d="M304 204q109 0 176 -60t67 -153q0 -103 -76 -163.5t-198 -60.5q-131 0 -235 60l38 130q93 -43 190 -43q47 0 76.5 20.5t29.5 53.5q0 39 -34 61t-91 22q-84 0 -147 -17l-18 30l32 356h368l-13 -144h-222l-7 -98q21 6 64 6z" glyph-name="five.tnum.oldstyle" horiz-adv-x="584"/><glyph d="M327 437q94 0 154.5 -59.5t60.5 -158.5q0 -105 -67 -169t-174 -64q-123 0 -191 86t-68 235q0 160 76.5 253.5t202.5 93.5q110 0 189 -57l-35 -125q-65 38 -141 38q-110 0 -135 -122q52 49 128 49zM293 133q38 0 59.5 26t21.5 67t-22 65.5t-59 24.5q-38 0 -60 -24.5 t-22 -66.5t23 -67t59 -25z" glyph-name="six.tnum.oldstyle" horiz-adv-x="584"/><glyph d="M521 440v-63l-219 -597h-179l181 513h-239v147h456z" glyph-name="seven.tnum.oldstyle" horiz-adv-x="584"/><glyph d="M449 350q56 -24 88.5 -68.5t32.5 -94.5q0 -89 -75.5 -143t-202.5 -54q-126 0 -202 54t-76 143q0 50 32.5 94.5t89.5 68.5q-38 21 -59 54t-21 69q0 80 64.5 128.5t171.5 48.5t171.5 -48.5t64.5 -128.5q0 -36 -21 -68.5t-58 -54.5zM292 508q-32 0 -52 -15t-20 -39 q0 -28 20 -45t52 -17t52 17t20 45q0 24 -20 39t-52 15zM292 137q47 0 75.5 20t28.5 54q0 32 -29 54t-75 22t-74.5 -22t-28.5 -54q0 -34 28 -54t75 -20z" glyph-name="eight.tnum.oldstyle" horiz-adv-x="584"/><glyph d="M283 455q123 0 191 -86t68 -235q0 -168 -76.5 -266.5t-202.5 -98.5q-112 0 -189 57l35 128q67 -41 141 -41q53 0 88.5 36t47.5 106q-50 -50 -129 -50q-94 0 -154.5 59t-60.5 159q0 105 67 168.5t174 63.5zM291 125q38 0 60 24.5t22 66.5t-22.5 67t-59.5 25 q-38 0 -59.5 -26t-21.5 -67t22 -65.5t59 -24.5z" glyph-name="nine.tnum.oldstyle" horiz-adv-x="584"/><glyph d="M292 452q113 0 185 -65t72 -168q0 -102 -72 -167.5t-185 -65.5q-112 0 -184 65.5t-72 167.5q0 103 71.5 168t184.5 65zM292 308q-35 0 -58 -25t-23 -63q0 -23 8 -42l104 124q-14 6 -31 6zM292 131q36 0 59 25t23 64q0 21 -8 40l-104 -124q15 -5 30 -5z" glyph-name="zero.tnum.oldstyle.zero" horiz-adv-x="584"/><glyph d="M213 -9q-82 0 -133 56.5t-51 144.5q0 89 51 145t133 56q83 0 133.5 -56t50.5 -145t-50.5 -145t-133.5 -56zM213 97q28 0 44.5 26.5t16.5 68.5q0 43 -16.5 69t-44.5 26t-44 -26.5t-16 -68.5t16 -68.5t44 -26.5z" glyph-name="zero.dnom" horiz-adv-x="426"/><glyph d="M101 0v252l-72 -29v105l135 56h61v-384h-124z" glyph-name="one.dnom" horiz-adv-x="295"/><glyph d="M29 0v49q107 87 145.5 127.5t38.5 73.5q0 16 -11.5 27t-31.5 11q-53 0 -101 -45l-26 85q67 65 151 65q66 0 104.5 -34.5t38.5 -95.5q0 -52 -27 -91.5t-85 -78.5h118v-93h-314z" glyph-name="two.dnom" horiz-adv-x="372"/><glyph d="M181 -6q-83 0 -152 40l26 86q52 -28 105 -28q33 0 54 14t21 30q0 20 -20 32t-55 12q-40 0 -71 -9l-9 28l96 93h-115v92h271v-48l-90 -84q53 -6 85 -38t32 -78q0 -65 -48 -103.5t-130 -38.5z" glyph-name="three.dnom" horiz-adv-x="388"/><glyph d="M238 0v62h-209v55l186 267h128v-234h38v-88h-38v-62h-105zM158 150h80v120z" glyph-name="four.dnom" horiz-adv-x="410"/><glyph d="M205 251q72 0 114.5 -34.5t42.5 -89.5q0 -63 -48.5 -99.5t-129.5 -36.5q-88 0 -155 35l26 87q58 -24 114 -24q70 0 70 39q0 41 -81 41q-47 0 -86 -11l-15 23l20 203h245l-9 -87h-145l-5 -51q11 5 42 5z" glyph-name="five.dnom" horiz-adv-x="391"/><glyph d="M214 257q58 0 94.5 -32.5t36.5 -93.5q0 -64 -42 -102t-110 -38q-78 0 -121 50.5t-43 140.5q0 100 48.5 155.5t128.5 55.5q67 0 119 -33l-23 -79q-39 22 -85 22q-66 0 -83 -74q31 28 80 28zM187 87q19 0 30 13.5t11 35.5t-11 35.5t-30 13.5t-30.5 -14t-11.5 -35 q0 -22 11.5 -35.5t30.5 -13.5z" glyph-name="six.dnom" horiz-adv-x="374"/><glyph d="M330 384v-46l-126 -338h-129l104 284h-150v100h301z" glyph-name="seven.dnom" horiz-adv-x="359"/><glyph d="M299 210q38 -14 59.5 -40.5t21.5 -57.5q0 -55 -47.5 -86.5t-128.5 -31.5t-128 31.5t-47 86.5q0 31 22 57.5t59 40.5q-55 26 -55 75t40 77t109 28q70 0 110 -28t40 -77q0 -50 -55 -75zM204 302q-16 0 -26.5 -9t-10.5 -23t10.5 -23t26.5 -9t26.5 9t10.5 23t-10.5 23 t-26.5 9zM204 88q23 0 37 11t14 30t-14 29.5t-37 10.5t-37 -10.5t-14 -29.5t14 -30t37 -11z" glyph-name="eight.dnom" horiz-adv-x="409"/><glyph d="M181 393q78 0 121 -50.5t43 -139.5q0 -100 -48.5 -156t-127.5 -56q-66 0 -119 33l23 79q38 -21 85 -21q66 0 83 74q-30 -29 -81 -29q-57 0 -93.5 32.5t-36.5 93.5q0 65 41.5 102.5t109.5 37.5zM187 199q19 0 30.5 14t11.5 35q0 23 -11 36.5t-30 13.5t-30.5 -14t-11.5 -36 t11.5 -35.5t29.5 -13.5z" glyph-name="nine.dnom" horiz-adv-x="374"/><glyph d="M213 267q-82 0 -133 56.5t-51 144.5q0 89 51 145t133 56q83 0 133.5 -56t50.5 -145t-50.5 -145t-133.5 -56zM213 373q28 0 44.5 26.5t16.5 68.5q0 43 -16.5 69t-44.5 26t-44 -26.5t-16 -68.5t16 -68.5t44 -26.5z" glyph-name="zero.numr" horiz-adv-x="426"/><glyph d="M101 276v252l-72 -29v105l135 56h61v-384h-124z" glyph-name="one.numr" horiz-adv-x="295"/><glyph d="M29 276v49q107 87 145.5 127.5t38.5 73.5q0 16 -11.5 27t-31.5 11q-53 0 -101 -45l-26 85q67 65 151 65q66 0 104.5 -34.5t38.5 -95.5q0 -52 -27 -91.5t-85 -78.5h118v-93h-314z" glyph-name="two.numr" horiz-adv-x="372"/><glyph d="M181 270q-83 0 -152 40l26 86q52 -28 105 -28q33 0 54 14t21 30q0 20 -20 32t-55 12q-40 0 -71 -9l-9 28l96 93h-115v92h271v-48l-90 -84q53 -6 85 -38t32 -78q0 -65 -48 -103.5t-130 -38.5z" glyph-name="three.numr" horiz-adv-x="388"/><glyph d="M238 276v62h-209v55l186 267h128v-234h38v-88h-38v-62h-105zM158 426h80v120z" glyph-name="four.numr" horiz-adv-x="410"/><glyph d="M205 527q72 0 114.5 -34.5t42.5 -89.5q0 -63 -48.5 -99.5t-129.5 -36.5q-88 0 -155 35l26 87q58 -24 114 -24q70 0 70 39q0 41 -81 41q-47 0 -86 -11l-15 23l20 203h245l-9 -87h-145l-5 -51q11 5 42 5z" glyph-name="five.numr" horiz-adv-x="391"/><glyph d="M214 533q58 0 94.5 -32.5t36.5 -93.5q0 -64 -42 -102t-110 -38q-78 0 -121 50.5t-43 140.5q0 100 48.5 155.5t128.5 55.5q67 0 119 -33l-23 -79q-39 22 -85 22q-66 0 -83 -74q31 28 80 28zM187 363q19 0 30 13.5t11 35.5t-11 35.5t-30 13.5t-30.5 -14t-11.5 -35 q0 -22 11.5 -35.5t30.5 -13.5z" glyph-name="six.numr" horiz-adv-x="374"/><glyph d="M330 660v-46l-126 -338h-129l104 284h-150v100h301z" glyph-name="seven.numr" horiz-adv-x="359"/><glyph d="M299 486q38 -14 59.5 -40.5t21.5 -57.5q0 -55 -47.5 -86.5t-128.5 -31.5t-128 31.5t-47 86.5q0 31 22 57.5t59 40.5q-55 26 -55 75t40 77t109 28q70 0 110 -28t40 -77q0 -50 -55 -75zM204 578q-16 0 -26.5 -9t-10.5 -23t10.5 -23t26.5 -9t26.5 9t10.5 23t-10.5 23 t-26.5 9zM204 364q23 0 37 11t14 30t-14 29.5t-37 10.5t-37 -10.5t-14 -29.5t14 -30t37 -11z" glyph-name="eight.numr" horiz-adv-x="409"/><glyph d="M181 669q78 0 121 -50.5t43 -139.5q0 -100 -48.5 -156t-127.5 -56q-66 0 -119 33l23 79q38 -21 85 -21q66 0 83 74q-30 -29 -81 -29q-57 0 -93.5 32.5t-36.5 93.5q0 65 41.5 102.5t109.5 37.5zM187 475q19 0 30.5 14t11.5 35q0 23 -11 36.5t-30 13.5t-30.5 -14t-11.5 -36 t11.5 -35.5t29.5 -13.5z" glyph-name="nine.numr" horiz-adv-x="374"/><glyph d="M-58 635l-56 -145h-91l33 145h114z" glyph-name="glyph490" horiz-adv-x="0"/></font>
</defs>
</svg>
