<?xml version="1.0" encoding="UTF-8" standalone="no"?>
<svg
   xmlns:dc="http://purl.org/dc/elements/1.1/"
   xmlns:cc="http://creativecommons.org/ns#"
   xmlns:rdf="http://www.w3.org/1999/02/22-rdf-syntax-ns#"
   xmlns:svg="http://www.w3.org/2000/svg"
   xmlns="http://www.w3.org/2000/svg"
   xmlns:sodipodi="http://sodipodi.sourceforge.net/DTD/sodipodi-0.dtd"
   xmlns:inkscape="http://www.inkscape.org/namespaces/inkscape"
   aria-hidden="true"
   focusable="false"
   data-prefix="fas"
   data-icon="pause-circle"
   class="svg-inline--fa fa-pause-circle fa-w-16"
   role="img"
   viewBox="0 0 53.333332 53.333328"
   version="1.1"
   id="svg4"
   sodipodi:docname="pause.svg"
   width="53.333332"
   height="53.333328"
   inkscape:version="0.92.5 (2060ec1f9f, 2020-04-08)">
  <metadata
     id="metadata10">
    <rdf:RDF>
      <cc:Work
         rdf:about="">
        <dc:format>image/svg+xml</dc:format>
        <dc:type
           rdf:resource="http://purl.org/dc/dcmitype/StillImage" />
        <dc:title></dc:title>
      </cc:Work>
    </rdf:RDF>
  </metadata>
  <defs
     id="defs8" />
  <sodipodi:namedview
     pagecolor="#ffffff"
     bordercolor="#666666"
     borderopacity="1"
     objecttolerance="10"
     gridtolerance="10"
     guidetolerance="10"
     inkscape:pageopacity="0"
     inkscape:pageshadow="2"
     inkscape:window-width="1920"
     inkscape:window-height="1016"
     id="namedview6"
     showgrid="false"
     fit-margin-top="0"
     fit-margin-left="0"
     fit-margin-right="0"
     fit-margin-bottom="0"
     inkscape:zoom="0.4609375"
     inkscape:cx="248"
     inkscape:cy="248"
     inkscape:window-x="0"
     inkscape:window-y="27"
     inkscape:window-maximized="1"
     inkscape:current-layer="svg4" />
  <path
     d="M 26.666667,0 C 11.935484,0 0,11.93548 0,26.66666 c 0,14.73119 11.935484,26.66667 26.666667,26.66667 14.731182,0 26.666666,-11.93548 26.666666,-26.66667 C 53.333333,11.93548 41.397849,0 26.666667,0 Z m -1.72043,35.26881 c 0,0.94624 -0.774194,1.72043 -1.720431,1.72043 h -5.16129 c -0.946236,0 -1.72043,-0.77419 -1.72043,-1.72043 v -17.2043 c 0,-0.94623 0.774194,-1.72043 1.72043,-1.72043 h 5.16129 c 0.946237,0 1.720431,0.7742 1.720431,1.72043 z m 12.04301,0 c 0,0.94624 -0.774193,1.72043 -1.72043,1.72043 h -5.16129 c -0.946237,0 -1.72043,-0.77419 -1.72043,-1.72043 v -17.2043 c 0,-0.94623 0.774193,-1.72043 1.72043,-1.72043 h 5.16129 c 0.946237,0 1.72043,0.7742 1.72043,1.72043 z"
     id="path2"
     inkscape:connector-curvature="0"
     style="fill:#ffffff;stroke-width:0.10752688" />
</svg>
